<?xml version="1.0" encoding="UTF-8" ?>
<!DOCTYPE svg PUBLIC "-//W3C//DTD SVG 1.1//EN" "http://www.w3.org/Graphics/SVG/1.1/DTD/svg11.dtd">
<svg width="500pt" height="500pt" viewBox="0 0 500 500" version="1.1" xmlns="http://www.w3.org/2000/svg">
<g id="#0b0a0b7d">
<path fill="#0b0a0b" opacity="0.49" d=" M 378.57 1.55 C 387.68 1.14 396.83 1.15 405.93 1.48 C 406.32 1.68 407.10 2.10 407.49 2.31 C 398.66 2.99 389.76 2.43 380.90 2.59 C 380.15 5.24 379.32 7.87 378.27 10.41 C 376.61 10.44 374.96 10.49 373.31 10.53 C 372.68 12.68 373.39 15.83 371.27 17.18 C 367.40 17.69 363.48 17.33 359.60 17.36 C 358.73 19.55 358.59 22.19 357.00 24.01 C 352.93 24.89 348.65 24.01 344.54 24.85 C 344.26 26.76 343.96 28.66 343.66 30.57 C 341.66 30.89 339.66 31.21 337.66 31.53 C 337.20 33.81 336.72 36.08 336.27 38.36 C 331.33 39.95 326.10 39.14 321.02 39.28 C 316.21 39.18 311.33 39.82 306.61 38.60 C 306.02 35.79 306.40 30.61 302.07 31.36 C 271.02 31.33 239.95 31.13 208.91 31.52 C 207.38 33.76 208.56 37.37 206.43 39.17 C 197.16 39.56 187.84 39.19 178.55 39.24 C 177.95 38.64 177.35 38.04 176.75 37.44 C 176.68 35.42 176.63 33.39 176.57 31.37 C 174.61 31.31 172.65 31.26 170.69 31.22 C 170.07 28.73 169.58 26.23 169.20 23.70 C 165.44 23.50 161.67 23.77 157.93 23.40 C 154.98 22.75 155.69 19.05 155.55 16.83 L 157.19 16.11 C 157.77 18.05 156.87 21.02 159.03 22.12 C 162.82 22.41 166.63 22.18 170.43 22.41 C 171.39 24.60 171.60 26.98 171.71 29.34 C 174.03 29.45 176.32 29.80 178.55 30.47 C 178.88 32.54 179.19 34.60 179.44 36.68 C 188.45 36.12 197.62 38.68 206.50 36.53 C 206.69 34.18 206.13 30.09 209.31 29.67 C 240.99 29.62 272.69 29.39 304.37 29.75 C 307.85 29.90 307.47 33.99 307.50 36.48 C 308.95 36.90 310.43 37.55 311.99 37.28 C 319.52 36.65 327.17 38.19 334.65 36.67 C 334.96 34.63 335.28 32.59 335.59 30.54 C 337.70 29.66 339.98 29.37 342.26 29.28 C 342.59 26.92 342.35 23.72 345.01 22.65 C 348.76 22.10 352.58 22.47 356.36 22.30 C 356.77 20.01 356.51 16.92 358.90 15.66 C 363.02 15.35 367.16 15.71 371.28 15.35 C 371.53 13.06 371.98 10.80 372.61 8.59 C 374.35 8.37 376.26 8.67 377.84 7.76 C 378.58 5.79 378.37 3.62 378.57 1.55 Z" />
<path fill="#0b0a0b" opacity="0.49" d=" M 101.48 14.86 C 103.22 14.85 104.78 14.30 106.17 13.24 C 106.16 13.93 106.13 15.32 106.12 16.02 L 105.95 16.82 C 104.27 16.90 102.60 16.99 100.93 17.08 C 100.03 37.74 101.11 58.45 100.34 79.11 C 99.53 81.48 96.53 81.31 94.53 81.92 C 94.16 86.32 94.86 90.87 93.31 95.10 C 91.36 95.44 89.11 95.23 87.49 96.55 C 86.44 98.37 86.54 100.56 86.23 102.57 C 83.98 103.03 81.70 103.37 79.41 103.58 C 78.77 107.57 80.97 112.87 77.37 115.73 C 77.27 111.34 77.26 106.94 77.53 102.55 C 79.70 101.73 82.00 101.40 84.31 101.32 C 84.57 99.13 84.30 96.66 85.72 94.81 C 87.63 94.05 89.77 94.15 91.79 93.85 C 92.59 89.79 91.92 85.64 92.50 81.57 C 93.79 79.74 96.49 80.00 98.42 79.22 C 98.70 58.64 98.41 38.05 98.65 17.46 C 99.59 16.59 100.53 15.72 101.48 14.86 Z" />
<path fill="#0b0a0b" opacity="0.49" d=" M 407.36 14.32 C 409.90 15.64 413.87 14.57 415.44 17.35 C 415.78 38.42 415.26 59.51 415.77 80.58 C 414.41 80.61 413.68 80.06 413.57 78.92 C 413.18 58.39 413.92 37.84 413.20 17.33 C 411.31 17.30 409.42 17.28 407.54 17.25 C 407.50 16.52 407.41 15.05 407.36 14.32 Z" />
<path fill="#0b0a0b" opacity="0.49" d=" M 427.51 94.74 C 427.95 94.70 428.85 94.62 429.29 94.58 C 429.66 96.78 428.65 99.91 431.08 101.14 C 432.87 101.70 435.29 101.08 436.48 102.89 C 437.01 107.12 436.32 111.42 437.05 115.64 C 439.09 115.75 441.16 115.81 443.12 116.47 C 444.74 117.85 444.38 120.08 444.48 121.96 C 444.45 126.91 444.55 131.86 444.47 136.81 C 446.53 137.29 448.64 137.50 450.77 137.56 C 450.72 138.05 450.64 139.03 450.59 139.52 C 447.97 138.97 445.34 138.50 442.70 138.09 C 442.22 131.35 442.61 124.58 442.29 117.83 C 439.84 117.31 436.04 118.37 434.87 115.44 C 434.38 111.49 434.79 107.49 434.64 103.52 C 432.45 103.15 429.71 103.85 428.00 102.07 C 427.63 100.36 427.59 98.60 427.29 96.89 C 426.41 95.08 423.99 95.90 422.38 95.52 C 424.08 95.19 425.79 94.94 427.51 94.74 Z" />
<path fill="#0b0a0b" opacity="0.49" d=" M 71.01 116.78 L 72.48 116.37 C 72.23 122.60 71.52 128.82 71.69 135.08 C 71.19 134.85 70.18 134.40 69.67 134.18 C 69.90 128.42 68.56 122.19 71.01 116.78 Z" />
<path fill="#0b0a0b" opacity="0.49" d=" M 69.21 215.51 C 70.70 215.50 71.94 216.44 71.63 218.04 C 72.00 221.57 71.06 225.34 72.44 228.70 C 74.60 229.70 76.97 230.11 79.24 230.76 C 79.32 232.64 79.40 234.52 79.49 236.40 C 81.67 236.86 85.06 236.05 86.22 238.52 C 86.83 242.32 86.19 246.20 86.74 250.01 C 89.15 250.84 91.69 251.21 94.17 251.78 C 94.29 253.59 94.41 255.41 94.54 257.23 C 96.47 257.74 98.40 258.28 100.34 258.82 C 100.52 260.96 100.69 263.10 100.86 265.25 C 102.68 265.36 104.51 265.45 106.33 265.54 C 107.09 267.42 107.47 269.41 107.63 271.43 C 109.85 272.18 112.16 272.64 114.49 272.90 C 114.47 273.26 114.44 273.97 114.43 274.33 C 111.83 275.04 109.01 274.38 106.48 273.62 C 106.35 271.62 106.19 269.61 106.02 267.62 C 104.23 267.53 102.45 267.46 100.66 267.41 C 98.79 265.39 98.74 262.68 98.05 260.21 C 96.32 259.69 94.53 259.50 92.75 259.25 C 92.42 256.99 92.02 254.74 91.54 252.51 C 89.23 252.33 86.07 252.77 84.69 250.50 C 84.32 246.92 84.58 243.31 84.57 239.73 C 82.32 239.18 79.98 238.94 77.81 238.11 C 77.30 235.93 77.26 233.67 76.95 231.46 C 74.83 231.31 72.73 230.95 70.68 230.39 C 68.60 225.71 70.07 220.44 69.21 215.51 Z" />
<path fill="#0b0a0b" opacity="0.49" d=" M 34.73 287.57 C 45.50 287.03 56.30 287.39 67.08 287.35 C 68.72 287.17 70.12 287.99 71.48 288.76 C 71.52 290.59 71.58 292.42 71.67 294.25 C 73.19 294.32 74.71 294.36 76.22 294.58 C 78.87 295.85 78.32 299.21 78.48 301.63 C 81.07 301.95 83.66 302.31 86.24 302.73 C 86.33 304.58 86.43 306.42 86.52 308.28 C 88.75 308.57 91.47 308.07 93.10 309.99 C 93.94 314.14 92.41 318.66 94.51 322.56 C 98.66 321.80 100.70 326.13 100.57 329.62 C 102.41 329.68 104.25 329.75 106.09 329.80 C 106.88 332.29 107.35 334.87 107.48 337.49 C 111.70 337.58 115.92 337.29 120.13 337.63 C 122.18 338.84 121.92 341.61 122.55 343.61 C 123.99 344.14 125.48 344.53 127.03 344.44 C 141.13 344.29 155.24 344.30 169.34 344.58 C 170.97 341.61 170.06 338.12 170.32 334.90 C 170.48 333.48 170.05 331.40 171.82 330.84 C 173.79 330.48 175.84 330.41 177.71 329.62 C 177.69 325.21 177.72 320.78 178.52 316.42 C 180.42 315.69 182.36 315.10 184.33 314.59 C 184.80 313.02 185.08 311.36 185.90 309.93 C 187.40 308.47 189.61 308.63 191.54 308.38 C 191.62 306.68 191.69 304.97 191.76 303.27 C 183.84 303.00 175.92 303.24 168.00 303.17 C 165.93 303.19 162.41 302.81 163.80 299.89 L 164.71 300.37 C 165.27 300.62 166.40 301.14 166.96 301.40 C 175.81 302.48 184.94 300.31 193.66 302.35 C 193.60 304.91 193.49 307.48 193.30 310.05 C 191.39 310.46 189.49 310.91 187.61 311.41 C 186.92 313.28 186.86 315.61 185.32 317.04 C 183.76 317.43 182.15 317.50 180.56 317.68 C 178.86 322.06 179.72 326.83 179.42 331.41 C 177.12 331.88 174.82 332.29 172.50 332.62 C 172.29 336.79 172.70 341.16 171.16 345.13 C 170.32 346.62 168.43 346.25 167.01 346.39 C 155.36 346.26 143.70 346.28 132.04 346.33 C 128.27 346.33 124.40 346.71 120.76 345.49 C 120.36 343.53 120.90 340.91 118.90 339.71 C 114.88 339.25 110.81 339.60 106.77 339.41 C 106.24 336.99 105.50 334.62 104.49 332.36 C 102.56 332.14 100.40 332.43 98.69 331.32 C 97.53 329.67 97.87 327.49 97.57 325.60 C 95.63 325.17 92.90 325.59 91.85 323.45 C 91.27 319.60 91.94 315.68 91.52 311.81 C 90.00 309.74 87.10 310.45 84.88 310.11 C 84.29 307.90 83.83 305.65 83.45 303.40 C 81.29 303.29 79.13 303.18 76.98 303.05 C 76.75 300.86 76.31 298.70 75.53 296.66 C 73.68 296.29 71.20 296.81 69.95 295.03 C 69.28 293.01 69.43 290.83 69.25 288.74 C 58.34 288.50 47.42 288.55 36.51 288.72 C 36.41 292.63 36.42 296.53 36.39 300.44 C 38.43 301.25 40.52 301.92 42.65 302.46 C 43.01 304.43 43.36 306.41 43.72 308.38 C 45.85 308.46 48.03 308.29 50.11 308.88 C 51.45 310.48 51.22 312.71 51.61 314.63 C 55.25 314.77 58.88 314.80 62.52 314.73 C 63.44 315.64 64.36 316.56 65.28 317.48 C 65.34 319.05 65.40 320.61 65.46 322.19 C 67.37 322.97 69.88 323.04 71.20 324.80 C 71.77 328.77 71.46 332.84 72.17 336.81 C 74.54 337.11 76.91 337.43 79.28 337.76 C 79.50 341.54 79.28 345.34 79.63 349.12 C 81.15 351.13 84.01 350.51 86.21 350.95 C 86.36 353.09 86.48 355.23 86.57 357.38 C 88.75 358.03 90.98 358.54 93.23 358.86 C 93.98 360.96 94.45 363.14 94.79 365.35 C 96.63 365.62 98.47 365.92 100.30 366.26 C 100.57 368.10 100.75 369.97 101.32 371.75 C 105.41 373.31 110.03 371.90 114.27 372.89 C 115.87 374.34 115.05 376.85 115.49 378.73 C 133.77 379.02 152.05 378.72 170.33 378.86 C 171.63 380.64 172.66 382.65 172.37 384.93 C 172.22 404.99 172.48 425.05 172.26 445.11 C 169.92 445.70 167.51 446.08 165.28 447.00 C 164.76 449.04 164.54 451.15 164.28 453.25 C 162.42 453.39 160.55 453.54 158.69 453.69 C 158.46 455.77 158.77 458.03 157.92 459.99 C 156.44 461.93 153.66 461.22 151.57 461.60 C 150.03 465.09 150.77 468.86 151.64 472.42 C 162.36 472.60 173.08 472.66 183.80 472.76 C 184.20 470.80 184.46 468.80 185.05 466.89 C 186.56 465.22 189.20 465.59 191.21 465.00 L 191.67 464.92 C 191.82 463.68 192.01 462.46 192.25 461.24 C 194.21 461.51 193.47 463.72 193.42 465.15 C 192.45 468.55 188.35 467.01 185.97 468.61 C 185.94 470.52 185.73 472.43 185.39 474.32 C 175.58 474.79 165.75 474.28 155.93 474.36 C 153.77 474.43 151.66 473.91 149.60 473.33 C 149.32 468.80 149.26 464.27 149.68 459.76 C 152.01 459.50 154.35 459.18 156.53 458.25 C 156.52 456.58 156.53 454.93 156.53 453.27 C 158.24 451.93 160.35 451.46 162.48 451.29 C 163.00 449.21 162.06 446.52 163.55 444.82 C 165.73 444.39 167.98 444.38 170.20 444.23 C 170.39 425.82 170.12 407.40 170.29 388.99 C 170.38 386.45 170.19 383.91 169.67 381.43 C 152.11 381.45 134.54 381.51 116.98 381.41 C 113.35 381.61 113.60 377.13 113.32 374.66 C 109.50 374.47 105.66 374.73 101.85 374.41 C 99.32 373.56 98.77 370.64 98.26 368.37 C 97.06 368.27 95.86 368.17 94.66 368.08 C 94.00 367.49 93.35 366.91 92.69 366.33 C 92.46 364.30 92.04 362.30 91.38 360.37 C 89.73 360.36 88.09 360.35 86.44 360.33 C 85.89 359.73 85.34 359.13 84.79 358.53 C 84.67 356.49 84.32 354.47 83.45 352.61 C 81.55 352.28 79.02 353.01 77.72 351.18 C 77.08 347.47 77.73 343.69 77.25 339.97 C 75.63 337.18 70.77 339.56 69.71 336.10 C 69.40 332.64 69.57 329.15 69.25 325.69 C 67.41 325.34 65.37 325.29 63.84 324.08 C 62.83 322.03 63.88 318.95 62.12 317.47 C 58.35 317.11 54.53 317.72 50.78 317.13 C 48.59 315.62 48.61 312.79 48.47 310.43 C 46.65 310.35 44.78 310.56 43.00 310.10 C 41.62 308.16 41.60 305.73 41.54 303.46 C 39.22 303.15 36.91 302.79 34.61 302.39 C 34.34 297.45 34.06 292.47 34.73 287.57 Z" />
<path fill="#0b0a0b" opacity="0.49" d=" M 205.65 352.45 C 208.29 350.29 214.11 349.14 215.45 353.15 C 215.72 393.26 215.50 433.40 215.50 473.52 C 213.37 474.92 210.90 475.48 208.38 475.58 C 208.02 477.49 207.66 479.41 207.31 481.34 C 205.03 481.75 202.75 482.18 200.48 482.60 C 200.51 486.38 200.52 490.16 200.43 493.94 C 209.32 495.09 218.38 494.52 227.31 494.09 L 227.99 495.27 C 226.15 497.12 223.34 496.31 221.02 496.52 C 214.01 496.32 206.95 496.94 199.98 496.21 C 198.33 491.36 199.28 485.70 199.54 480.58 C 201.80 480.01 204.09 479.61 206.42 479.38 C 206.41 477.30 206.62 475.23 207.66 473.40 C 209.54 473.37 211.43 473.34 213.32 473.30 C 213.76 433.06 213.52 392.80 213.47 352.56 C 211.66 352.54 209.86 352.51 208.05 352.47 C 207.64 355.44 207.69 358.81 204.59 360.31 C 202.99 360.37 201.39 360.46 199.80 360.55 C 200.34 365.69 200.17 370.85 200.20 376.00 C 200.24 396.67 200.12 417.33 200.19 437.99 C 200.08 444.97 200.56 451.98 199.64 458.92 L 198.54 458.85 C 198.86 449.90 198.71 440.94 198.73 431.98 C 198.54 412.66 198.87 393.34 198.72 374.02 C 198.79 368.85 198.24 363.63 199.32 358.52 C 201.26 358.27 203.20 358.02 205.15 357.77 C 205.32 355.99 205.49 354.22 205.65 352.45 Z" />
</g>
<g id="#010101ff">
<path fill="#010101" opacity="1.00" d=" M 106.56 2.71 C 113.49 0.63 120.91 1.95 128.05 1.76 C 130.13 2.55 132.37 2.38 134.55 2.42 C 134.45 4.85 135.00 7.21 135.62 9.54 C 137.55 9.15 140.64 10.61 141.63 8.41 C 141.55 9.65 141.51 10.90 141.50 12.15 L 143.98 10.50 C 143.95 11.49 143.84 12.47 143.65 13.43 C 142.85 13.56 142.04 13.60 141.25 13.76 C 141.66 14.41 142.49 15.70 142.91 16.34 C 147.11 16.66 151.34 16.40 155.55 16.39 L 155.55 16.83 C 155.69 19.05 154.98 22.75 157.93 23.40 C 161.67 23.77 165.44 23.50 169.20 23.70 C 169.58 26.23 170.07 28.73 170.69 31.22 C 172.65 31.26 174.61 31.31 176.57 31.37 C 176.63 33.39 176.68 35.42 176.75 37.44 C 177.35 38.04 177.95 38.64 178.55 39.24 C 187.84 39.19 197.16 39.56 206.43 39.17 C 208.56 37.37 207.38 33.76 208.91 31.52 C 239.95 31.13 271.02 31.33 302.07 31.36 C 306.40 30.61 306.02 35.79 306.61 38.60 C 311.33 39.82 316.21 39.18 321.02 39.28 C 326.10 39.14 331.33 39.95 336.27 38.36 C 336.72 36.08 337.20 33.81 337.66 31.53 C 339.66 31.21 341.66 30.89 343.66 30.57 C 343.96 28.66 344.26 26.76 344.54 24.85 C 348.65 24.01 352.93 24.89 357.00 24.01 C 358.59 22.19 358.73 19.55 359.60 17.36 C 363.48 17.33 367.40 17.69 371.27 17.18 C 373.39 15.83 372.68 12.68 373.31 10.53 C 374.96 10.49 376.61 10.44 378.27 10.41 C 379.32 7.87 380.15 5.24 380.90 2.59 C 389.76 2.43 398.66 2.99 407.49 2.31 C 407.37 6.31 407.47 10.32 407.36 14.32 C 407.41 15.05 407.50 16.52 407.54 17.25 C 409.42 17.28 411.31 17.30 413.20 17.33 C 413.92 37.84 413.18 58.39 413.57 78.92 C 413.68 80.06 414.41 80.61 415.77 80.58 C 417.63 80.61 419.51 80.58 421.39 80.59 C 421.49 85.22 421.47 89.85 421.50 94.48 C 423.50 94.53 425.50 94.60 427.51 94.74 C 425.79 94.94 424.08 95.19 422.38 95.52 C 423.99 95.90 426.41 95.08 427.29 96.89 C 427.59 98.60 427.63 100.36 428.00 102.07 C 429.71 103.85 432.45 103.15 434.64 103.52 C 434.79 107.49 434.38 111.49 434.87 115.44 C 436.04 118.37 439.84 117.31 442.29 117.83 C 442.61 124.58 442.22 131.35 442.70 138.09 C 445.34 138.50 447.97 138.97 450.59 139.52 C 450.43 164.83 450.59 190.15 450.48 215.46 C 448.10 215.57 445.79 216.12 443.49 216.66 C 443.40 220.89 443.62 225.12 443.34 229.34 C 441.79 231.40 438.80 230.14 436.62 230.52 C 436.47 231.70 436.17 232.84 435.73 233.94 C 435.65 235.10 435.58 236.26 435.53 237.42 C 433.15 237.69 430.83 238.26 428.48 238.65 C 428.24 242.74 428.93 246.94 427.97 250.95 C 425.94 251.75 423.72 251.44 421.60 251.55 C 421.53 253.95 421.67 256.45 420.43 258.61 C 419.81 258.63 418.57 258.66 417.95 258.68 C 416.84 259.13 415.70 259.48 414.53 259.73 C 414.51 261.25 414.50 262.76 414.51 264.29 C 414.16 264.82 413.46 265.90 413.11 266.43 C 411.25 266.45 409.41 266.48 407.56 266.51 C 407.47 268.87 407.71 271.35 406.67 273.55 C 404.46 273.56 402.13 273.16 400.04 274.04 C 399.21 275.71 399.54 277.64 399.43 279.45 C 394.94 280.85 390.22 280.16 385.61 280.54 C 385.53 282.37 385.41 284.20 385.27 286.03 C 384.74 286.38 383.69 287.08 383.16 287.43 C 379.30 287.55 375.44 287.53 371.58 287.60 C 371.50 289.76 371.60 291.96 371.06 294.07 C 364.43 295.23 357.53 294.19 350.80 294.60 C 350.54 295.19 350.00 296.38 349.73 296.97 C 349.62 298.79 349.53 300.62 349.44 302.45 C 340.08 302.50 330.73 302.34 321.37 302.50 C 321.37 304.81 321.40 307.11 321.47 309.42 C 323.33 309.47 325.20 309.53 327.07 309.63 C 327.40 310.21 328.04 311.36 328.36 311.94 C 328.46 313.43 328.53 314.94 328.58 316.44 C 330.70 316.53 332.92 316.26 334.94 317.05 C 336.02 321.72 335.05 326.63 335.56 331.40 C 337.92 331.50 340.51 331.12 342.53 332.66 C 342.85 341.40 342.19 350.20 342.96 358.89 C 344.24 361.58 341.72 364.39 343.27 366.95 C 343.28 367.72 343.29 369.26 343.29 370.03 C 342.09 371.48 343.26 373.35 343.29 374.98 C 343.48 379.34 343.56 383.74 342.68 388.05 C 342.61 393.72 342.48 399.43 342.76 405.10 L 343.66 405.99 C 341.51 408.69 343.03 412.78 342.74 416.06 C 342.92 416.79 343.29 418.25 343.47 418.98 C 341.60 421.64 343.10 424.99 343.07 427.93 C 342.59 429.94 342.23 432.11 343.32 434.01 C 342.05 437.27 342.82 440.82 342.57 444.22 C 344.62 445.58 347.09 445.44 349.45 445.40 C 349.68 447.79 350.16 450.14 350.57 452.51 C 351.75 452.55 352.93 452.60 354.12 452.65 C 354.71 452.91 355.89 453.44 356.48 453.71 C 356.58 455.66 356.26 457.83 357.62 459.46 C 359.54 460.03 361.48 460.55 363.50 460.63 C 363.66 464.54 363.62 468.46 363.62 472.37 C 362.19 473.14 360.64 473.61 359.01 473.49 C 349.23 473.41 339.45 473.58 329.67 473.47 C 327.64 472.30 328.76 469.68 328.50 467.80 C 327.91 467.49 326.73 466.86 326.14 466.55 C 325.03 466.52 323.93 466.49 322.83 466.47 C 322.52 465.91 321.89 464.78 321.57 464.22 C 321.49 462.67 321.42 461.12 321.36 459.58 C 319.33 459.51 317.32 459.46 315.31 459.48 C 314.61 458.09 314.48 456.53 314.53 455.01 C 314.59 423.19 314.59 391.37 314.52 359.55 C 312.56 359.08 310.60 358.65 308.62 358.38 C 308.58 357.15 308.25 356.03 307.64 355.00 C 307.63 354.40 307.61 353.19 307.60 352.58 C 305.22 351.46 302.50 351.09 299.96 351.91 C 299.07 354.15 299.56 356.66 299.45 359.02 C 299.39 397.11 299.49 435.21 299.48 473.30 C 301.60 474.55 304.06 474.50 306.44 474.43 C 306.48 476.53 306.71 478.65 307.53 480.63 C 309.37 480.63 311.22 480.65 313.07 480.69 C 313.41 481.16 314.08 482.08 314.42 482.55 C 313.92 486.80 315.72 491.70 313.27 495.49 C 304.37 495.47 295.48 495.68 286.58 495.53 C 286.22 493.18 285.77 490.85 285.52 488.49 C 280.93 487.53 276.26 487.71 271.61 487.42 C 271.47 482.79 271.61 478.17 271.41 473.55 C 269.49 473.52 267.57 473.51 265.65 473.53 C 264.99 472.10 264.37 470.62 264.51 469.02 C 264.53 427.99 264.61 386.96 264.41 345.93 C 263.95 345.57 263.04 344.86 262.58 344.50 C 258.72 344.53 254.82 344.17 250.99 344.72 C 248.92 345.66 249.64 348.20 249.45 349.98 C 249.36 390.31 249.52 430.64 249.30 470.97 C 249.04 471.58 248.50 472.80 248.23 473.42 C 246.34 473.47 244.46 473.53 242.57 473.58 C 242.28 478.07 242.92 482.65 242.18 487.10 C 240.80 487.54 239.37 487.84 237.99 488.27 C 234.84 486.92 231.60 488.25 228.38 488.51 C 228.41 490.14 228.44 491.77 228.51 493.42 C 228.21 493.59 227.61 493.92 227.31 494.09 C 218.38 494.52 209.32 495.09 200.43 493.94 C 200.52 490.16 200.51 486.38 200.48 482.60 C 202.75 482.18 205.03 481.75 207.31 481.34 C 207.66 479.41 208.02 477.49 208.38 475.58 C 210.90 475.48 213.37 474.92 215.50 473.52 C 215.50 433.40 215.72 393.26 215.45 353.15 C 214.11 349.14 208.29 350.29 205.65 352.45 C 205.49 354.22 205.32 355.99 205.15 357.77 C 203.20 358.02 201.26 358.27 199.32 358.52 C 198.24 363.63 198.79 368.85 198.72 374.02 C 198.87 393.34 198.54 412.66 198.73 431.98 C 198.71 440.94 198.86 449.90 198.54 458.85 L 198.52 459.53 C 196.35 459.52 194.19 459.55 192.03 459.45 C 190.72 461.00 191.27 463.15 191.21 465.00 C 189.20 465.59 186.56 465.22 185.05 466.89 C 184.46 468.80 184.20 470.80 183.80 472.76 C 173.08 472.66 162.36 472.60 151.64 472.42 C 150.77 468.86 150.03 465.09 151.57 461.60 C 153.66 461.22 156.44 461.93 157.92 459.99 C 158.77 458.03 158.46 455.77 158.69 453.69 C 160.55 453.54 162.42 453.39 164.28 453.25 C 164.54 451.15 164.76 449.04 165.28 447.00 C 167.51 446.08 169.92 445.70 172.26 445.11 C 172.48 425.05 172.22 404.99 172.37 384.93 C 172.66 382.65 171.63 380.64 170.33 378.86 C 152.05 378.72 133.77 379.02 115.49 378.73 C 115.05 376.85 115.87 374.34 114.27 372.89 C 110.03 371.90 105.41 373.31 101.32 371.75 C 100.75 369.97 100.57 368.10 100.30 366.26 C 98.47 365.92 96.63 365.62 94.79 365.35 C 94.45 363.14 93.98 360.96 93.23 358.86 C 90.98 358.54 88.75 358.03 86.57 357.38 C 86.48 355.23 86.36 353.09 86.21 350.95 C 84.01 350.51 81.15 351.13 79.63 349.12 C 79.28 345.34 79.50 341.54 79.28 337.76 C 76.91 337.43 74.54 337.11 72.17 336.81 C 71.46 332.84 71.77 328.77 71.20 324.80 C 69.88 323.04 67.37 322.97 65.46 322.19 C 65.40 320.61 65.34 319.05 65.28 317.48 C 64.36 316.56 63.44 315.64 62.52 314.73 C 58.88 314.80 55.25 314.77 51.61 314.63 C 51.22 312.71 51.45 310.48 50.11 308.88 C 48.03 308.29 45.85 308.46 43.72 308.38 C 43.36 306.41 43.01 304.43 42.65 302.46 C 40.52 301.92 38.43 301.25 36.39 300.44 C 36.42 296.53 36.41 292.63 36.51 288.72 C 47.42 288.55 58.34 288.50 69.25 288.74 C 69.43 290.83 69.28 293.01 69.95 295.03 C 71.20 296.81 73.68 296.29 75.53 296.66 C 76.31 298.70 76.75 300.86 76.98 303.05 C 79.13 303.18 81.29 303.29 83.45 303.40 C 83.83 305.65 84.29 307.90 84.88 310.11 C 87.10 310.45 90.00 309.74 91.52 311.81 C 91.94 315.68 91.27 319.60 91.85 323.45 C 92.90 325.59 95.63 325.17 97.57 325.60 C 97.87 327.49 97.53 329.67 98.69 331.32 C 100.40 332.43 102.56 332.14 104.49 332.36 C 105.50 334.62 106.24 336.99 106.77 339.41 C 110.81 339.60 114.88 339.25 118.90 339.71 C 120.90 340.91 120.36 343.53 120.76 345.49 C 124.40 346.71 128.27 346.33 132.04 346.33 C 143.70 346.28 155.36 346.26 167.01 346.39 C 168.43 346.25 170.32 346.62 171.16 345.13 C 172.70 341.16 172.29 336.79 172.50 332.62 C 174.82 332.29 177.12 331.88 179.42 331.41 C 179.72 326.83 178.86 322.06 180.56 317.68 C 182.15 317.50 183.76 317.43 185.32 317.04 C 186.86 315.61 186.92 313.28 187.61 311.41 C 189.49 310.91 191.39 310.46 193.30 310.05 C 193.49 307.48 193.60 304.91 193.66 302.35 C 184.94 300.31 175.81 302.48 166.96 301.40 C 166.40 301.14 165.27 300.62 164.71 300.37 C 164.25 298.50 164.36 296.56 164.29 294.66 C 157.45 294.48 150.61 294.64 143.77 294.52 C 143.49 293.93 142.93 292.75 142.65 292.15 C 142.60 290.61 142.55 289.08 142.50 287.55 C 138.25 287.47 134.00 287.43 129.75 287.50 C 128.45 285.43 128.37 282.98 128.36 280.61 C 123.92 280.20 119.36 280.95 115.01 279.99 C 114.21 278.23 114.50 276.21 114.43 274.33 C 114.44 273.97 114.47 273.26 114.49 272.90 C 112.16 272.64 109.85 272.18 107.63 271.43 C 107.47 269.41 107.09 267.42 106.33 265.54 C 104.51 265.45 102.68 265.36 100.86 265.25 C 100.69 263.10 100.52 260.96 100.34 258.82 C 98.40 258.28 96.47 257.74 94.54 257.23 C 94.41 255.41 94.29 253.59 94.17 251.78 C 91.69 251.21 89.15 250.84 86.74 250.01 C 86.19 246.20 86.83 242.32 86.22 238.52 C 85.06 236.05 81.67 236.86 79.49 236.40 C 79.40 234.52 79.32 232.64 79.24 230.76 C 76.97 230.11 74.60 229.70 72.44 228.70 C 71.06 225.34 72.00 221.57 71.63 218.04 C 71.94 216.44 70.70 215.50 69.21 215.51 C 67.67 215.49 66.14 215.56 64.61 215.60 C 63.99 214.14 63.40 212.64 63.52 211.02 C 63.53 189.35 63.48 167.68 63.52 146.01 C 63.57 143.67 63.34 141.28 63.87 138.98 C 66.02 137.91 68.44 137.66 70.79 137.43 C 70.51 136.62 69.95 134.99 69.67 134.18 C 70.18 134.40 71.19 134.85 71.69 135.08 C 71.52 128.82 72.23 122.60 72.48 116.37 C 73.77 116.47 75.05 116.55 76.34 116.64 C 76.60 116.41 77.11 115.96 77.37 115.73 C 80.97 112.87 78.77 107.57 79.41 103.58 C 81.70 103.37 83.98 103.03 86.23 102.57 C 86.54 100.56 86.44 98.37 87.49 96.55 C 89.11 95.23 91.36 95.44 93.31 95.10 C 94.86 90.87 94.16 86.32 94.53 81.92 C 96.53 81.31 99.53 81.48 100.34 79.11 C 101.11 58.45 100.03 37.74 100.93 17.08 C 102.60 16.99 104.27 16.90 105.95 16.82 L 106.12 16.02 C 107.57 11.80 106.03 7.12 106.56 2.71 Z" />
</g>
</svg>
