<?xml version="1.0" encoding="UTF-8" ?>
<!DOCTYPE svg PUBLIC "-//W3C//DTD SVG 1.1//EN" "http://www.w3.org/Graphics/SVG/1.1/DTD/svg11.dtd">
<svg width="512pt" height="512pt" viewBox="0 0 512 512" version="1.1" xmlns="http://www.w3.org/2000/svg">
<g id="#000000ff">
<path fill="#000000" opacity="1.00" d=" M 144.01 15.98 C 154.66 16.04 165.31 16.04 175.97 15.99 C 175.99 21.32 176.01 26.65 176.04 31.98 C 179.86 32.00 187.50 32.05 191.32 32.07 C 191.61 26.71 191.90 21.35 192.16 15.99 C 202.76 16.05 213.36 16.04 223.97 15.98 C 223.99 21.32 224.01 26.65 224.04 31.98 C 227.86 32.00 235.50 32.05 239.32 32.07 C 239.61 26.71 239.90 21.35 240.16 15.99 C 250.76 16.05 261.36 16.04 271.97 15.98 C 271.99 21.32 272.01 26.65 272.04 31.98 C 275.86 32.00 283.50 32.05 287.32 32.07 C 287.61 26.71 287.90 21.35 288.16 15.99 C 298.76 16.05 309.36 16.04 319.97 15.98 C 319.99 21.32 320.01 26.65 320.04 31.98 C 323.86 32.00 331.50 32.05 335.32 32.07 C 335.61 26.71 335.89 21.35 336.16 15.99 C 346.76 16.05 357.36 16.04 367.97 15.98 C 367.99 21.32 368.01 26.65 368.04 31.98 C 371.86 32.00 379.50 32.05 383.32 32.07 C 383.61 26.71 383.89 21.35 384.16 15.99 C 394.76 16.05 405.36 16.04 415.97 15.98 C 415.98 21.32 416.00 26.65 416.02 31.99 C 426.67 31.98 437.31 32.03 447.96 32.02 C 447.98 37.33 448.01 42.64 448.04 47.96 C 453.34 47.99 458.64 48.02 463.95 48.05 C 463.98 53.35 464.01 58.65 464.04 63.95 C 469.36 63.98 474.68 64.02 480.01 64.05 C 479.99 197.35 480.00 330.66 480.00 463.96 C 474.68 463.98 469.36 464.01 464.04 464.04 C 464.01 469.34 463.98 474.64 463.96 479.95 C 458.64 479.98 453.34 480.00 448.04 480.04 C 448.01 485.35 447.99 490.68 447.97 496.00 C 357.33 496.00 266.68 496.00 176.04 496.00 C 176.01 490.68 175.98 485.36 175.95 480.05 C 170.69 480.00 165.43 479.96 160.17 479.92 C 159.99 474.74 159.80 469.56 159.61 464.39 C 154.49 464.18 149.38 463.99 144.27 463.81 C 143.95 458.51 143.64 453.23 143.29 447.96 C 139.47 447.96 131.82 447.98 128.00 447.99 C 128.02 410.66 127.98 373.33 128.00 336.00 C 90.68 336.03 53.36 335.97 16.04 336.00 C 16.01 330.67 15.98 325.35 15.95 320.03 C 10.64 320.01 5.32 319.99 0.00 319.97 L 0.00 272.16 C 5.35 271.90 10.69 271.59 16.03 271.28 C 16.01 260.93 16.03 250.59 16.03 240.25 C 21.36 239.93 26.70 239.61 32.03 239.26 C 32.01 228.92 32.03 218.58 32.03 208.25 C 37.36 207.93 42.70 207.61 48.03 207.26 C 48.01 196.92 48.03 186.59 48.03 176.25 C 53.36 175.93 58.70 175.61 64.03 175.26 C 64.01 164.92 64.03 154.59 64.03 144.25 C 69.36 143.93 74.70 143.61 80.03 143.26 C 80.01 132.92 80.03 122.59 80.03 112.25 C 85.36 111.94 90.70 111.61 96.03 111.26 C 96.01 100.92 96.03 90.59 96.03 80.25 C 101.36 79.94 106.70 79.62 112.03 79.26 C 112.01 68.89 112.02 58.52 112.02 48.15 C 117.22 47.98 122.41 47.80 127.61 47.61 C 127.81 42.50 128.00 37.38 128.19 32.27 C 133.47 31.96 138.76 31.64 144.04 31.29 C 144.04 27.47 144.02 19.81 144.01 15.98 M 144.00 32.00 C 144.00 37.33 144.00 42.67 144.00 48.00 C 149.33 48.00 154.67 48.00 160.00 48.00 C 159.99 42.67 159.99 37.33 160.00 32.00 C 154.66 32.00 149.33 32.00 144.00 32.00 M 192.00 32.00 C 192.00 37.33 192.00 42.67 192.00 48.00 C 197.33 48.00 202.66 48.00 208.00 48.00 C 207.99 42.67 207.99 37.33 208.00 32.00 C 202.66 32.00 197.33 32.00 192.00 32.00 M 240.00 32.00 C 240.00 37.33 240.00 42.67 240.00 48.00 C 245.33 48.00 250.66 48.00 256.00 48.00 C 255.99 42.67 255.99 37.33 256.00 32.00 C 250.66 32.00 245.33 32.00 240.00 32.00 M 288.00 32.00 C 288.00 37.33 288.00 42.67 288.00 48.00 C 293.33 48.00 298.66 48.00 304.00 48.00 C 303.99 42.67 303.99 37.33 304.00 32.00 C 298.66 32.00 293.33 32.00 288.00 32.00 M 336.00 32.00 C 336.00 37.33 336.00 42.67 336.00 48.00 C 341.33 48.00 346.66 48.00 352.00 48.00 C 351.99 42.67 351.99 37.33 352.00 32.00 C 346.66 32.00 341.33 32.00 336.00 32.00 M 384.00 32.00 C 384.00 37.33 384.00 42.67 384.00 48.00 C 389.33 48.00 394.66 48.00 400.00 48.00 C 399.99 42.67 399.99 37.33 400.00 32.00 C 394.66 32.00 389.33 32.00 384.00 32.00 M 128.00 48.00 C 128.00 53.33 128.00 58.66 128.01 63.99 C 128.01 69.32 128.00 74.65 127.98 79.98 C 122.65 79.99 117.33 80.01 112.00 80.02 C 112.00 85.35 112.00 90.67 112.01 96.00 C 112.01 101.33 112.00 106.65 111.98 111.98 C 106.65 111.99 101.33 112.01 96.00 112.02 C 96.00 117.35 96.00 122.67 96.01 128.00 C 96.01 133.33 96.00 138.65 95.98 143.98 C 90.65 143.99 85.33 144.01 80.00 144.02 C 80.00 149.35 80.00 154.67 80.01 160.00 C 80.01 165.32 80.00 170.65 79.98 175.98 C 74.65 175.99 69.33 176.01 64.00 176.02 C 64.00 181.35 64.00 186.67 64.01 192.00 C 64.01 197.32 64.00 202.65 63.98 207.98 C 58.65 207.99 53.33 208.01 48.00 208.02 C 48.00 213.34 48.00 218.67 48.01 224.00 C 48.01 229.32 48.00 234.65 47.98 239.98 C 42.65 239.99 37.33 240.01 32.00 240.02 C 32.00 245.34 32.00 250.67 32.01 256.00 C 32.01 261.32 32.00 266.65 31.98 271.98 C 26.65 271.99 21.32 272.00 16.00 272.02 C 16.01 277.34 16.01 282.67 16.02 288.00 C 15.98 293.33 15.94 298.65 15.90 303.99 C 16.13 309.34 16.40 314.68 16.70 320.04 C 103.80 319.97 190.90 319.98 278.00 320.04 C 286.67 319.99 295.34 319.77 304.00 319.38 C 304.05 308.98 304.02 298.60 304.00 288.21 C 309.34 287.95 314.68 287.66 320.02 287.32 C 319.99 277.07 319.99 266.82 319.99 256.57 C 325.32 256.01 330.66 255.68 336.01 255.20 C 336.02 244.87 336.01 234.54 336.01 224.21 C 341.34 223.95 346.68 223.66 352.02 223.32 C 351.99 213.07 351.99 202.82 351.99 192.57 C 357.32 192.01 362.66 191.68 368.01 191.20 C 368.02 180.87 368.01 170.54 368.01 160.21 C 373.34 159.95 378.68 159.66 384.02 159.32 C 383.99 149.07 383.99 138.82 383.99 128.57 C 389.32 128.01 394.66 127.68 400.01 127.20 C 400.02 116.87 400.01 106.54 400.01 96.21 C 405.34 95.95 410.68 95.66 416.02 95.32 C 415.99 85.07 415.99 74.82 415.99 64.57 C 421.32 64.01 426.67 63.69 432.03 63.23 C 432.02 59.42 432.01 51.81 432.00 48.00 C 426.67 48.00 421.33 48.00 416.01 48.00 C 410.90 48.01 405.77 47.99 400.67 47.98 C 400.33 53.31 400.07 58.65 399.84 63.99 C 394.63 63.98 389.42 63.98 384.22 63.99 C 383.93 58.65 383.66 53.32 383.29 47.99 C 378.19 47.99 373.08 47.99 368.00 48.00 C 362.89 48.00 357.76 47.99 352.67 47.98 C 352.34 53.32 352.07 58.65 351.84 63.99 C 346.63 63.98 341.42 63.98 336.22 63.99 C 335.93 58.65 335.66 53.32 335.29 47.99 C 330.19 47.99 325.08 47.99 320.00 48.00 C 314.89 48.00 309.77 47.99 304.67 47.98 C 304.34 53.32 304.07 58.65 303.84 63.99 C 298.63 63.98 293.42 63.98 288.22 63.99 C 287.93 58.65 287.66 53.32 287.29 47.99 C 282.19 47.99 277.09 47.99 272.00 48.00 C 266.89 48.00 261.77 47.99 256.67 47.98 C 256.34 53.32 256.08 58.65 255.84 63.99 C 250.63 63.98 245.43 63.98 240.22 63.99 C 239.93 58.65 239.66 53.32 239.29 47.99 C 234.19 47.99 229.09 47.99 224.00 48.00 C 218.89 48.00 213.77 47.99 208.67 47.98 C 208.34 53.32 208.08 58.65 207.84 63.99 C 202.63 63.98 197.43 63.98 192.22 63.99 C 191.93 58.65 191.66 53.32 191.29 47.99 C 186.19 47.99 181.09 47.99 176.00 48.00 C 170.89 48.00 165.77 47.99 160.67 47.98 C 160.34 53.32 160.08 58.65 159.84 63.99 C 154.63 63.98 149.42 63.98 144.21 63.99 C 143.95 58.65 143.66 53.31 143.33 47.97 C 139.49 47.98 131.83 47.99 128.00 48.00 M 432.01 64.02 C 431.98 74.67 432.00 85.33 431.99 95.98 C 426.66 95.99 421.33 96.00 416.01 96.01 C 415.99 106.67 416.01 117.32 415.99 127.98 C 410.64 127.99 405.31 128.00 399.98 128.02 C 400.03 138.68 400.04 149.34 399.99 160.00 C 394.65 159.99 389.32 159.98 384.00 159.98 C 383.99 165.32 384.00 170.66 384.01 176.00 C 384.00 181.32 383.99 186.65 383.98 191.98 C 378.65 191.99 373.32 192.01 368.00 192.02 C 368.00 197.34 368.00 202.67 368.00 208.00 C 368.01 213.34 367.99 218.66 368.00 224.01 C 362.65 224.00 357.31 224.00 351.98 223.99 C 352.03 234.66 352.04 245.33 351.99 256.01 C 346.65 256.00 341.32 255.99 336.00 255.99 C 335.99 261.32 336.00 266.66 336.01 272.00 C 336.00 277.32 335.99 282.65 335.98 287.98 C 330.65 287.99 325.32 288.00 320.00 288.02 C 320.00 293.34 320.00 298.67 320.00 304.00 C 320.01 309.33 319.99 314.66 320.00 320.00 C 314.67 320.00 309.34 320.00 304.02 320.00 C 304.00 325.33 303.99 330.67 303.98 336.01 C 250.65 335.98 197.33 336.02 144.00 335.99 C 144.00 341.32 144.00 346.66 144.00 352.00 C 144.00 357.33 143.99 362.65 143.99 368.00 C 144.03 378.66 144.02 389.33 144.00 400.00 C 144.00 405.33 143.99 410.65 144.00 416.00 C 144.00 421.33 144.00 426.65 144.00 432.00 C 143.99 437.33 143.99 442.67 144.00 448.01 C 149.33 447.99 154.66 447.99 159.99 447.99 C 160.00 453.33 160.00 458.67 160.00 464.01 C 165.30 463.99 170.60 463.99 175.91 463.99 C 175.92 469.01 175.97 474.00 176.18 479.02 C 186.33 480.88 196.74 479.87 207.00 480.07 C 287.11 479.92 367.21 480.02 447.32 480.02 C 447.65 474.76 447.95 469.49 448.23 464.24 C 453.48 463.94 458.75 463.65 464.01 463.29 C 464.01 330.34 463.95 197.39 464.04 64.44 C 458.70 64.12 453.33 64.05 448.00 63.92 C 442.66 63.96 437.33 63.99 432.01 64.02 Z" />
<path fill="#000000" opacity="1.00" d=" M 160.00 111.99 C 165.33 112.00 170.66 112.00 176.00 112.01 C 181.33 112.01 186.66 112.00 192.00 111.99 C 197.34 111.98 202.66 111.99 208.00 112.00 C 213.33 112.00 218.66 112.00 224.00 112.00 C 229.33 112.00 234.66 112.00 240.00 112.00 C 245.34 112.00 250.66 112.00 256.00 112.00 C 261.33 112.00 266.66 112.00 272.00 112.00 C 277.34 112.00 282.66 111.99 288.00 111.99 C 293.34 111.99 298.66 112.01 304.00 112.02 C 309.33 112.01 314.66 112.00 320.00 111.99 C 320.00 117.33 320.00 122.67 320.00 128.02 C 314.66 128.00 309.33 127.99 304.00 127.98 C 298.65 127.98 293.33 128.01 288.00 128.01 C 282.66 128.00 277.33 128.01 272.00 128.00 C 266.66 127.99 261.33 128.00 256.00 128.00 C 250.66 128.00 245.33 128.00 240.00 128.00 C 234.66 127.99 229.33 128.00 224.00 128.00 C 218.66 127.99 213.33 127.99 208.00 128.00 C 202.66 128.00 197.33 128.01 192.00 128.01 C 186.66 128.00 181.33 127.99 176.00 127.99 C 170.66 127.99 165.33 127.99 160.00 128.00 C 160.00 122.66 160.00 117.33 160.00 111.99 Z" />
<path fill="#000000" opacity="1.00" d=" M 144.00 143.99 C 149.36 144.00 154.72 144.00 160.09 144.01 C 165.39 144.01 170.69 143.99 176.00 143.99 C 181.33 143.98 186.66 143.99 192.00 144.00 C 197.33 144.01 202.66 144.00 208.00 144.00 C 213.33 144.00 218.66 144.00 224.00 144.00 C 229.33 144.00 234.66 143.99 240.00 144.00 C 245.33 144.00 250.66 144.00 256.00 144.00 C 261.33 144.00 266.66 143.99 272.00 143.99 C 277.33 143.99 282.66 144.01 288.00 144.02 C 293.33 144.01 298.66 144.00 304.00 143.99 C 304.00 149.33 304.00 154.67 304.00 160.02 C 298.66 160.00 293.33 159.98 288.00 159.98 C 282.66 159.98 277.33 160.01 272.00 160.01 C 266.66 160.00 261.33 160.01 256.00 160.00 C 250.66 159.99 245.33 160.00 240.00 160.00 C 234.66 159.99 229.33 160.00 224.00 160.00 C 218.66 159.99 213.33 160.00 208.00 160.00 C 202.66 159.99 197.33 160.00 192.00 160.00 C 186.66 160.00 181.33 160.01 176.00 160.01 C 170.66 160.00 165.33 159.99 160.00 159.99 C 154.66 159.99 149.33 159.99 144.00 160.00 C 144.00 154.66 144.00 149.33 144.00 143.99 Z" />
</g>
<g id="#ffffffff">
<path fill="#ffffff" opacity="1.00" d=" M 144.00 32.00 C 149.33 32.00 154.66 32.00 160.00 32.00 C 159.99 37.33 159.99 42.67 160.00 48.00 C 154.67 48.00 149.33 48.00 144.00 48.00 C 144.00 42.67 144.00 37.33 144.00 32.00 Z" />
<path fill="#ffffff" opacity="1.00" d=" M 192.00 32.00 C 197.33 32.00 202.66 32.00 208.00 32.00 C 207.99 37.33 207.99 42.67 208.00 48.00 C 202.66 48.00 197.33 48.00 192.00 48.00 C 192.00 42.67 192.00 37.33 192.00 32.00 Z" />
<path fill="#ffffff" opacity="1.00" d=" M 240.00 32.00 C 245.33 32.00 250.66 32.00 256.00 32.00 C 255.99 37.33 255.99 42.67 256.00 48.00 C 250.66 48.00 245.33 48.00 240.00 48.00 C 240.00 42.67 240.00 37.33 240.00 32.00 Z" />
<path fill="#ffffff" opacity="1.00" d=" M 288.00 32.00 C 293.33 32.00 298.66 32.00 304.00 32.00 C 303.99 37.33 303.99 42.67 304.00 48.00 C 298.66 48.00 293.33 48.00 288.00 48.00 C 288.00 42.67 288.00 37.33 288.00 32.00 Z" />
<path fill="#ffffff" opacity="1.00" d=" M 336.00 32.00 C 341.33 32.00 346.66 32.00 352.00 32.00 C 351.99 37.33 351.99 42.67 352.00 48.00 C 346.66 48.00 341.33 48.00 336.00 48.00 C 336.00 42.67 336.00 37.33 336.00 32.00 Z" />
<path fill="#ffffff" opacity="1.00" d=" M 384.00 32.00 C 389.33 32.00 394.66 32.00 400.00 32.00 C 399.99 37.33 399.99 42.67 400.00 48.00 C 394.66 48.00 389.33 48.00 384.00 48.00 C 384.00 42.67 384.00 37.33 384.00 32.00 Z" />
<path fill="#ffffff" opacity="1.00" d=" M 416.00 176.00 C 421.33 176.00 426.65 175.99 431.99 176.00 C 431.98 186.66 432.00 197.33 432.00 208.00 C 426.65 207.99 421.34 208.00 416.00 208.00 C 416.00 197.33 416.00 186.67 416.00 176.00 Z" />
<path fill="#ffffff" opacity="1.00" d=" M 400.00 224.00 C 410.66 224.01 421.33 224.00 432.00 224.00 C 431.99 234.66 431.99 245.33 432.00 256.00 C 421.33 256.00 410.66 256.00 400.00 256.00 C 400.00 245.33 400.00 234.66 400.00 224.00 Z" />
<path fill="#ffffff" opacity="1.00" d=" M 384.00 272.00 C 400.00 272.00 416.00 272.00 432.00 272.00 C 431.99 282.66 431.99 293.33 432.00 304.00 C 416.00 303.99 400.00 304.00 384.00 304.00 C 384.00 293.33 384.00 282.66 384.00 272.00 Z" />
<path fill="#ffffff" opacity="1.00" d=" M 368.00 320.00 C 389.33 320.00 410.67 319.99 432.00 320.00 C 431.99 330.66 431.99 341.33 432.00 352.00 C 410.66 352.00 389.33 351.99 368.00 352.00 C 368.00 341.33 368.00 330.67 368.00 320.00 Z" />
<path fill="#ffffff" opacity="1.00" d=" M 352.00 368.00 C 378.67 368.00 405.33 367.99 432.00 368.00 C 432.00 378.66 432.00 389.33 432.01 400.00 C 405.34 400.00 378.67 399.99 352.00 400.00 C 352.00 389.33 352.00 378.66 352.00 368.00 Z" />
<path fill="#ffffff" opacity="1.00" d=" M 320.01 416.00 C 357.33 416.00 394.66 415.99 431.98 416.00 C 431.98 421.32 431.99 426.64 432.00 431.96 C 426.68 431.98 421.36 432.01 416.04 432.04 C 416.01 437.36 415.98 442.68 415.95 448.01 C 330.63 447.98 245.31 448.02 159.99 447.99 C 154.66 447.99 149.33 447.99 144.00 448.01 C 143.99 442.67 143.99 437.33 144.00 432.00 C 202.66 432.01 261.32 431.98 319.98 432.01 C 319.98 426.67 319.99 421.33 320.01 416.00 Z" />
</g>
<g id="#00ffffff">
<path fill="#00ffff" opacity="1.00" d=" M 128.00 48.00 C 131.83 47.99 139.49 47.98 143.33 47.97 C 143.66 53.31 143.95 58.65 144.21 63.99 C 149.42 63.98 154.63 63.98 159.84 63.99 C 160.08 58.65 160.34 53.32 160.67 47.98 C 165.77 47.99 170.89 48.00 176.00 48.00 C 175.99 53.31 176.00 58.62 176.00 63.93 C 170.65 64.07 165.32 64.17 159.99 64.43 C 159.98 69.62 159.98 74.81 159.99 80.00 C 154.68 79.98 149.38 79.98 144.07 79.94 C 143.92 74.61 143.84 69.29 143.56 63.98 C 138.37 63.99 133.19 64.00 128.01 63.99 C 128.00 58.66 128.00 53.33 128.00 48.00 Z" />
<path fill="#00ffff" opacity="1.00" d=" M 224.00 48.00 C 229.09 47.99 234.19 47.99 239.29 47.99 C 239.66 53.32 239.93 58.65 240.22 63.99 C 245.43 63.98 250.63 63.98 255.84 63.99 C 256.08 58.65 256.34 53.32 256.67 47.98 C 261.77 47.99 266.89 48.00 272.00 48.00 C 271.99 53.31 272.00 58.62 272.00 63.93 C 266.65 64.07 261.32 64.17 255.98 64.43 C 255.98 69.62 255.99 74.81 256.00 80.00 C 250.68 80.00 245.38 80.00 240.08 80.00 C 239.92 74.66 239.84 69.33 239.56 64.00 C 234.36 63.98 229.19 63.98 224.00 63.93 C 224.00 58.62 223.99 53.31 224.00 48.00 Z" />
<path fill="#00ffff" opacity="1.00" d=" M 320.00 48.00 C 325.08 47.99 330.19 47.99 335.29 47.99 C 335.66 53.32 335.93 58.65 336.22 63.99 C 341.42 63.98 346.63 63.98 351.84 63.99 C 352.07 58.65 352.34 53.32 352.67 47.98 C 357.76 47.99 362.89 48.00 368.00 48.00 C 367.99 53.31 368.00 58.62 368.00 63.93 C 362.64 64.07 357.32 64.17 351.98 64.43 C 351.97 69.62 351.99 74.81 352.00 80.00 C 346.68 80.00 341.38 80.00 336.08 80.00 C 335.91 74.66 335.84 69.33 335.56 64.00 C 330.36 63.98 325.18 63.98 319.99 63.93 C 320.00 58.62 319.99 53.31 320.00 48.00 Z" />
<path fill="#00ffff" opacity="1.00" d=" M 176.00 63.93 C 181.19 63.98 186.37 63.98 191.56 64.00 C 191.84 69.33 191.92 74.66 192.08 80.00 C 186.71 80.00 181.36 80.00 176.00 80.00 C 176.00 74.64 175.99 69.29 176.00 63.93 Z" />
<path fill="#00ffff" opacity="1.00" d=" M 207.98 64.43 C 213.32 64.17 218.65 64.07 224.00 63.93 C 223.99 69.29 224.00 74.64 224.00 80.00 C 218.66 80.00 213.33 80.00 208.00 80.00 C 207.99 74.81 207.98 69.62 207.98 64.43 Z" />
<path fill="#00ffff" opacity="1.00" d=" M 272.00 63.93 C 277.19 63.98 282.36 63.98 287.56 64.00 C 287.84 69.33 287.91 74.66 288.08 80.00 C 282.71 80.00 277.36 80.00 272.00 80.00 C 272.00 74.64 271.99 69.29 272.00 63.93 Z" />
<path fill="#00ffff" opacity="1.00" d=" M 303.98 64.43 C 309.32 64.17 314.64 64.07 319.99 63.93 C 319.99 69.29 320.01 74.64 320.01 80.00 C 314.66 80.00 309.33 80.00 304.00 80.00 C 303.99 74.81 303.98 69.62 303.98 64.43 Z" />
<path fill="#00ffff" opacity="1.00" d=" M 368.00 63.93 C 373.19 63.98 378.36 63.98 383.56 64.00 C 383.85 69.33 383.92 74.66 384.09 80.00 C 378.71 80.00 373.36 80.00 368.00 80.00 C 368.00 74.64 367.98 69.29 368.00 63.93 Z" />
<path fill="#00ffff" opacity="1.00" d=" M 127.98 80.43 C 133.34 80.17 138.70 80.08 144.07 79.94 C 144.03 85.29 144.02 90.65 143.99 96.00 C 138.66 96.00 133.33 96.00 128.00 96.00 C 127.99 90.81 127.99 85.62 127.98 80.43 Z" />
<path fill="#00ffff" opacity="1.00" d=" M 159.99 80.00 C 165.33 80.01 170.66 80.00 176.00 80.00 C 175.99 85.33 176.00 90.67 176.00 96.00 C 170.68 96.00 165.37 96.00 160.06 96.00 C 160.02 90.67 160.01 85.33 159.99 80.00 Z" />
<path fill="#00ffff" opacity="1.00" d=" M 192.08 80.00 C 197.38 80.00 202.68 80.00 208.00 80.00 C 207.99 85.33 208.00 90.67 208.00 96.00 C 202.66 96.00 197.33 96.00 191.99 96.00 C 192.02 90.67 192.03 85.33 192.08 80.00 Z" />
<path fill="#00ffff" opacity="1.00" d=" M 224.00 80.00 C 229.36 80.00 234.71 80.00 240.08 80.00 C 240.03 85.33 240.02 90.67 239.99 96.00 C 234.65 96.00 229.33 96.00 224.00 96.00 C 224.00 90.67 223.99 85.33 224.00 80.00 Z" />
<path fill="#00ffff" opacity="1.00" d=" M 256.00 80.00 C 261.33 80.00 266.66 80.00 272.00 80.00 C 271.99 85.33 272.00 90.67 272.00 96.00 C 266.66 96.00 261.33 96.00 256.00 96.00 C 256.00 90.67 255.99 85.33 256.00 80.00 Z" />
<path fill="#00ffff" opacity="1.00" d=" M 288.08 80.00 C 293.38 80.00 298.68 80.00 304.00 80.00 C 303.99 85.33 304.00 90.67 304.00 96.00 C 298.65 96.00 293.33 96.00 287.99 96.00 C 288.02 90.67 288.03 85.33 288.08 80.00 Z" />
<path fill="#00ffff" opacity="1.00" d=" M 320.01 80.00 C 325.36 80.00 330.71 80.00 336.08 80.00 C 336.03 85.33 336.02 90.67 335.99 96.00 C 330.63 96.00 325.29 96.00 319.94 96.00 C 319.98 90.67 319.97 85.33 320.01 80.00 Z" />
<path fill="#00ffff" opacity="1.00" d=" M 352.00 80.00 C 357.33 80.00 362.65 80.00 368.00 80.00 C 367.98 85.33 367.99 90.67 368.00 96.01 C 362.65 96.00 357.33 96.00 352.00 96.00 C 352.00 90.67 351.98 85.33 352.00 80.00 Z" />
<path fill="#00ffff" opacity="1.00" d=" M 384.09 80.00 C 389.39 80.00 394.69 80.00 400.01 80.00 C 399.98 85.14 399.97 90.27 399.99 95.42 C 394.66 95.96 389.30 96.35 383.98 96.81 C 384.01 101.87 383.98 106.93 383.99 112.00 C 378.67 112.00 373.38 112.00 368.08 112.00 C 368.02 106.67 368.02 101.34 368.00 96.01 C 373.31 96.00 378.63 95.99 383.96 95.98 C 383.99 90.65 384.03 85.32 384.09 80.00 Z" />
<path fill="#00ffff" opacity="1.00" d=" M 112.01 96.00 C 117.34 96.00 122.66 96.00 128.00 96.00 C 127.99 101.31 128.00 106.63 128.00 111.94 C 122.65 112.08 117.32 112.16 111.98 112.44 C 111.99 117.62 111.99 122.81 112.00 128.00 C 106.66 127.99 101.34 128.00 96.01 128.00 C 96.00 122.67 96.00 117.35 96.00 112.02 C 101.33 112.01 106.65 111.99 111.98 111.98 C 112.00 106.65 112.01 101.33 112.01 96.00 Z" />
<path fill="#00ffff" opacity="1.00" d=" M 143.99 96.00 C 149.35 96.00 154.70 96.00 160.06 96.00 C 159.91 101.34 159.84 106.68 159.56 112.01 C 154.37 112.00 149.19 112.02 144.00 112.01 C 143.99 106.67 143.99 101.33 143.99 96.00 Z" />
<path fill="#00ffff" opacity="1.00" d=" M 176.00 96.00 C 181.33 96.00 186.65 96.00 191.99 96.00 C 191.99 101.33 192.00 106.66 192.00 111.99 C 186.66 112.00 181.33 112.01 176.00 112.01 C 176.00 106.67 175.99 101.33 176.00 96.00 Z" />
<path fill="#00ffff" opacity="1.00" d=" M 208.00 96.00 C 213.33 96.00 218.66 96.00 224.00 96.00 C 223.99 101.33 224.00 106.67 224.00 112.00 C 218.66 112.00 213.33 112.00 208.00 112.00 C 208.00 106.67 207.99 101.33 208.00 96.00 Z" />
<path fill="#00ffff" opacity="1.00" d=" M 239.99 96.00 C 245.33 96.00 250.65 96.00 256.00 96.00 C 255.99 101.33 256.00 106.67 256.00 112.00 C 250.66 112.00 245.34 112.00 240.00 112.00 C 240.00 106.67 239.98 101.33 239.99 96.00 Z" />
<path fill="#00ffff" opacity="1.00" d=" M 272.00 96.00 C 277.33 96.00 282.65 96.00 287.99 96.00 C 287.98 101.33 288.00 106.66 288.00 111.99 C 282.66 111.99 277.34 112.00 272.00 112.00 C 272.00 106.67 271.99 101.33 272.00 96.00 Z" />
<path fill="#00ffff" opacity="1.00" d=" M 304.00 96.00 C 309.31 96.00 314.61 96.00 319.94 96.00 C 320.07 101.34 320.17 106.68 320.43 112.02 C 325.61 112.00 330.81 112.00 336.00 112.00 C 335.99 117.31 336.00 122.63 336.00 127.94 C 330.65 128.08 325.32 128.16 319.98 128.44 C 319.98 133.64 319.99 138.85 319.99 144.06 C 314.64 143.91 309.32 143.83 303.98 143.57 C 303.98 138.36 303.99 133.18 304.00 127.98 C 309.33 127.99 314.66 128.00 320.00 128.02 C 320.00 122.67 320.00 117.33 320.00 111.99 C 314.66 112.00 309.33 112.01 304.00 112.02 C 304.00 106.68 303.99 101.34 304.00 96.00 Z" />
<path fill="#00ffff" opacity="1.00" d=" M 335.99 96.00 C 341.33 96.00 346.65 96.00 352.00 96.00 C 351.99 101.33 352.00 106.67 352.00 112.00 C 346.65 112.00 341.34 112.00 336.00 112.00 C 336.00 106.67 335.98 101.33 335.99 96.00 Z" />
<path fill="#00ffff" opacity="1.00" d=" M 128.00 111.94 C 133.33 111.98 138.66 111.98 144.00 112.01 C 144.01 117.34 144.03 122.66 144.08 128.00 C 138.71 127.99 133.36 128.00 128.00 128.00 C 128.00 122.65 127.99 117.29 128.00 111.94 Z" />
<path fill="#00ffff" opacity="1.00" d=" M 352.00 112.00 C 357.36 112.00 362.70 112.00 368.08 112.00 C 367.91 117.34 367.85 122.68 367.56 128.01 C 362.36 128.00 357.19 128.02 352.00 128.01 C 352.00 122.67 351.99 117.33 352.00 112.00 Z" />
<path fill="#00ffff" opacity="1.00" d=" M 112.00 128.00 C 117.33 128.00 122.66 127.99 128.00 128.00 C 128.00 133.33 128.00 138.67 128.00 144.01 C 122.66 143.98 117.33 143.98 112.00 143.94 C 112.00 138.63 111.99 133.31 112.00 128.00 Z" />
<path fill="#00ffff" opacity="1.00" d=" M 144.08 128.00 C 149.24 128.00 154.39 127.98 159.56 127.98 C 159.84 133.32 159.92 138.66 160.09 144.01 C 154.72 144.00 149.36 144.00 144.00 143.99 C 144.00 149.33 144.00 154.66 144.00 160.00 C 149.33 159.99 154.66 159.99 160.00 159.99 C 159.99 165.32 160.00 170.66 160.00 176.00 C 154.69 175.99 149.39 176.00 144.08 176.00 C 143.92 170.65 143.85 165.32 143.56 159.98 C 138.37 159.98 133.19 159.99 128.00 160.00 C 128.00 154.66 128.00 149.34 128.00 144.01 C 133.19 144.02 138.37 144.00 143.56 144.01 C 143.85 138.68 143.92 133.33 144.08 128.00 Z" />
<path fill="#00ffff" opacity="1.00" d=" M 176.00 127.99 C 181.33 127.99 186.66 128.00 192.00 128.01 C 191.99 133.33 192.00 138.67 192.00 144.00 C 186.66 143.99 181.33 143.98 176.00 143.99 C 176.00 138.66 175.99 133.32 176.00 127.99 Z" />
<path fill="#00ffff" opacity="1.00" d=" M 208.00 128.00 C 213.33 127.99 218.66 127.99 224.00 128.00 C 223.99 133.33 224.00 138.67 224.00 144.00 C 218.66 144.00 213.33 144.00 208.00 144.00 C 208.00 138.67 207.99 133.33 208.00 128.00 Z" />
<path fill="#00ffff" opacity="1.00" d=" M 240.00 128.00 C 245.33 128.00 250.66 128.00 256.00 128.00 C 255.99 133.33 256.00 138.67 256.00 144.00 C 250.66 144.00 245.33 144.00 240.00 144.00 C 240.00 138.67 239.99 133.33 240.00 128.00 Z" />
<path fill="#00ffff" opacity="1.00" d=" M 272.00 128.00 C 277.33 128.01 282.66 128.00 288.00 128.01 C 287.99 133.34 288.00 138.68 288.00 144.02 C 282.66 144.01 277.33 143.99 272.00 143.99 C 272.00 138.66 271.99 133.33 272.00 128.00 Z" />
<path fill="#00ffff" opacity="1.00" d=" M 336.00 127.94 C 341.33 127.98 346.65 127.98 352.00 128.01 C 352.00 133.34 351.99 138.67 352.01 144.00 C 346.66 143.99 341.34 143.99 336.00 143.99 C 336.00 138.64 335.98 133.29 336.00 127.94 Z" />
<path fill="#00ffff" opacity="1.00" d=" M 95.98 144.44 C 101.32 144.16 106.65 144.08 112.00 143.94 C 111.99 149.29 112.00 154.65 112.00 160.00 C 106.66 159.99 101.33 160.00 96.00 160.00 C 95.99 154.81 95.99 149.62 95.98 144.44 Z" />
<path fill="#00ffff" opacity="1.00" d=" M 319.99 144.06 C 325.33 144.02 330.65 144.01 336.00 143.99 C 335.99 149.33 335.99 154.68 336.00 160.02 C 330.65 159.98 325.33 159.98 320.00 159.94 C 320.00 154.65 319.98 149.35 319.99 144.06 Z" />
<path fill="#00ffff" opacity="1.00" d=" M 352.01 144.00 C 357.34 144.00 362.67 143.99 368.02 144.00 C 368.01 149.14 367.99 154.27 368.01 159.42 C 362.67 159.96 357.31 160.34 351.98 160.81 C 352.01 165.87 351.98 170.93 351.99 176.00 C 346.67 176.00 341.38 176.00 336.08 176.00 C 336.03 170.67 336.02 165.34 336.00 160.02 C 341.32 160.00 346.65 159.99 351.98 159.98 C 351.98 154.65 351.99 149.33 352.01 144.00 Z" />
<path fill="#00ffff" opacity="1.00" d=" M 80.01 160.00 C 85.34 160.00 90.66 159.99 96.00 160.00 C 95.99 165.31 96.00 170.63 96.00 175.94 C 90.65 176.08 85.32 176.17 79.98 176.43 C 79.99 181.62 79.99 186.81 80.00 192.00 C 74.66 191.99 69.34 192.00 64.01 192.00 C 64.00 186.67 64.00 181.35 64.00 176.02 C 69.33 176.01 74.65 175.99 79.98 175.98 C 80.00 170.65 80.01 165.32 80.01 160.00 Z" />
<path fill="#00ffff" opacity="1.00" d=" M 112.00 160.00 C 117.33 160.00 122.66 159.99 128.00 160.00 C 128.00 165.32 128.00 170.66 128.00 176.00 C 122.66 176.00 117.33 176.01 112.00 176.00 C 112.00 170.67 112.00 165.33 112.00 160.00 Z" />
<path fill="#00ffff" opacity="1.00" d=" M 176.00 160.01 C 181.33 160.01 186.66 160.00 192.00 160.00 C 191.99 165.33 192.00 170.67 192.00 176.00 C 186.66 175.99 181.33 176.00 176.00 176.00 C 176.00 170.67 175.99 165.33 176.00 160.01 Z" />
<path fill="#00ffff" opacity="1.00" d=" M 208.00 160.00 C 213.33 160.00 218.66 159.99 224.00 160.00 C 223.99 165.33 224.00 170.67 224.00 176.00 C 218.66 175.99 213.33 176.00 208.00 176.00 C 208.00 170.67 207.99 165.33 208.00 160.00 Z" />
<path fill="#00ffff" opacity="1.00" d=" M 240.00 160.00 C 245.33 160.00 250.66 159.99 256.00 160.00 C 255.99 165.33 256.00 170.67 256.00 176.00 C 250.66 175.99 245.33 176.00 240.00 176.00 C 240.00 170.67 239.99 165.33 240.00 160.00 Z" />
<path fill="#00ffff" opacity="1.00" d=" M 272.00 160.01 C 277.33 160.01 282.66 159.98 288.00 159.98 C 288.00 165.32 287.99 170.65 288.00 176.00 C 282.66 175.99 277.33 176.00 272.00 176.00 C 272.00 170.67 271.99 165.33 272.00 160.01 Z" />
<path fill="#00ffff" opacity="1.00" d=" M 303.98 160.43 C 309.32 160.17 314.65 160.08 320.00 159.94 C 319.99 165.29 320.00 170.65 320.00 176.00 C 314.65 175.99 309.33 176.00 304.00 176.00 C 303.99 170.81 303.98 165.62 303.98 160.43 Z" />
<path fill="#00ffff" opacity="1.00" d=" M 96.00 175.94 C 101.33 175.98 106.66 175.97 112.00 176.00 C 112.00 181.33 112.00 186.67 112.00 192.00 C 106.66 191.99 101.33 192.00 96.00 192.00 C 96.00 186.65 95.99 181.29 96.00 175.94 Z" />
<path fill="#00ffff" opacity="1.00" d=" M 128.00 176.00 C 133.36 176.00 138.71 175.99 144.08 176.00 C 144.03 181.32 144.02 186.67 143.99 192.00 C 138.66 191.99 133.33 192.00 128.00 192.00 C 128.00 186.67 128.00 181.33 128.00 176.00 Z" />
<path fill="#00ffff" opacity="1.00" d=" M 160.00 176.00 C 165.33 176.00 170.66 175.99 176.00 176.00 C 175.99 181.33 176.00 186.67 176.00 192.00 C 170.66 191.99 165.33 192.00 160.00 192.00 C 160.00 186.67 159.99 181.33 160.00 176.00 Z" />
<path fill="#00ffff" opacity="1.00" d=" M 192.00 176.00 C 197.33 176.00 202.66 175.99 208.00 176.00 C 207.99 181.33 208.00 186.67 208.00 192.00 C 202.66 191.99 197.33 192.00 192.00 192.00 C 192.00 186.67 191.99 181.33 192.00 176.00 Z" />
<path fill="#00ffff" opacity="1.00" d=" M 224.00 176.00 C 229.33 176.00 234.66 175.99 240.00 176.00 C 239.99 181.33 240.00 186.67 240.00 192.00 C 234.66 191.99 229.33 192.00 224.00 192.00 C 224.00 186.67 223.99 181.33 224.00 176.00 Z" />
<path fill="#00ffff" opacity="1.00" d=" M 256.00 176.00 C 261.33 176.00 266.66 175.99 272.00 176.00 C 271.99 181.33 272.00 186.67 272.00 192.00 C 266.66 191.99 261.33 192.00 256.00 192.00 C 256.00 186.67 255.99 181.33 256.00 176.00 Z" />
<path fill="#00ffff" opacity="1.00" d=" M 288.00 176.00 C 293.33 176.00 298.65 175.99 304.00 176.00 C 303.99 181.33 304.00 186.67 304.00 192.00 C 298.66 191.99 293.33 192.00 288.00 192.00 C 288.00 186.67 287.99 181.33 288.00 176.00 Z" />
<path fill="#00ffff" opacity="1.00" d=" M 320.00 176.00 C 325.36 176.00 330.71 175.99 336.08 176.00 C 335.92 181.34 335.85 186.69 335.56 192.02 C 330.36 192.00 325.19 192.01 320.00 192.00 C 320.00 186.67 319.99 181.33 320.00 176.00 Z" />
<path fill="#00ffff" opacity="1.00" d=" M 80.00 192.00 C 85.33 192.00 90.66 191.99 96.00 192.00 C 96.00 197.33 96.00 202.67 96.00 208.00 C 90.66 207.97 85.33 207.98 80.00 207.94 C 80.00 202.63 79.99 197.31 80.00 192.00 Z" />
<path fill="#00ffff" opacity="1.00" d=" M 112.00 192.00 C 117.33 192.00 122.66 191.99 128.00 192.00 C 128.00 197.33 128.00 202.67 128.00 208.00 C 122.66 207.99 117.33 208.00 112.00 208.00 C 112.00 202.66 112.00 197.33 112.00 192.00 Z" />
<path fill="#00ffff" opacity="1.00" d=" M 143.99 192.00 C 149.33 192.00 154.66 191.99 160.00 192.00 C 159.99 197.33 160.00 202.67 160.00 208.00 C 154.66 207.99 149.34 208.00 144.00 208.00 C 143.99 202.67 143.99 197.33 143.99 192.00 Z" />
<path fill="#00ffff" opacity="1.00" d=" M 176.00 192.00 C 181.33 192.00 186.66 191.99 192.00 192.00 C 191.99 197.33 192.00 202.67 192.00 208.00 C 186.66 207.99 181.33 208.00 176.00 208.00 C 176.00 202.67 175.99 197.33 176.00 192.00 Z" />
<path fill="#00ffff" opacity="1.00" d=" M 208.00 192.00 C 213.33 192.00 218.66 191.99 224.00 192.00 C 223.99 197.33 224.00 202.67 224.00 208.00 C 218.66 207.99 213.33 208.00 208.00 208.00 C 208.00 202.67 207.99 197.33 208.00 192.00 Z" />
<path fill="#00ffff" opacity="1.00" d=" M 240.00 192.00 C 245.33 192.00 250.66 191.99 256.00 192.00 C 255.99 197.33 256.00 202.67 256.00 208.00 C 250.66 207.99 245.33 208.00 240.00 208.00 C 240.00 202.67 239.99 197.33 240.00 192.00 Z" />
<path fill="#00ffff" opacity="1.00" d=" M 272.00 192.00 C 277.33 192.00 282.66 191.99 288.00 192.00 C 287.99 197.33 288.00 202.67 288.00 208.00 C 282.66 207.99 277.33 208.00 272.00 208.00 C 272.00 202.67 271.99 197.33 272.00 192.00 Z" />
<path fill="#00ffff" opacity="1.00" d=" M 304.00 192.00 C 309.33 192.00 314.65 192.00 320.00 192.00 C 320.00 197.34 319.99 202.66 320.01 208.00 C 314.66 207.99 309.34 208.00 304.00 208.00 C 304.00 202.67 303.98 197.33 304.00 192.00 Z" />
<path fill="#00ffff" opacity="1.00" d=" M 63.98 208.43 C 69.32 208.17 74.65 208.08 80.00 207.94 C 79.99 213.29 80.00 218.65 80.00 224.00 C 74.66 223.99 69.33 224.00 64.00 224.00 C 63.99 218.81 63.99 213.61 63.98 208.43 Z" />
<path fill="#00ffff" opacity="1.00" d=" M 96.00 208.00 C 101.33 208.01 106.66 207.99 112.00 208.00 C 112.00 213.32 112.00 218.67 112.00 224.00 C 106.66 223.99 101.33 224.00 96.00 224.00 C 96.00 218.67 96.00 213.33 96.00 208.00 Z" />
<path fill="#00ffff" opacity="1.00" d=" M 128.00 208.00 C 133.33 208.00 138.66 207.99 144.00 208.00 C 144.00 213.33 144.00 218.67 144.00 224.00 C 138.66 223.99 133.33 224.00 128.00 224.00 C 128.00 218.67 128.00 213.33 128.00 208.00 Z" />
<path fill="#00ffff" opacity="1.00" d=" M 160.00 208.00 C 165.33 208.00 170.66 207.99 176.00 208.00 C 175.99 213.33 176.00 218.67 176.00 224.00 C 170.66 223.99 165.33 224.00 160.00 224.00 C 160.00 218.67 159.99 213.33 160.00 208.00 Z" />
<path fill="#00ffff" opacity="1.00" d=" M 192.00 208.00 C 197.33 208.00 202.66 207.99 208.00 208.00 C 207.99 213.33 208.00 218.67 208.00 224.00 C 202.66 223.99 197.33 224.00 192.00 224.00 C 192.00 218.67 191.99 213.33 192.00 208.00 Z" />
<path fill="#00ffff" opacity="1.00" d=" M 224.00 208.00 C 229.33 208.00 234.66 207.99 240.00 208.00 C 239.99 213.33 240.00 218.67 240.00 224.00 C 234.66 223.99 229.33 224.00 224.00 224.00 C 224.00 218.67 223.99 213.33 224.00 208.00 Z" />
<path fill="#00ffff" opacity="1.00" d=" M 256.00 208.00 C 261.33 208.00 266.66 207.99 272.00 208.00 C 271.99 213.33 272.00 218.67 272.00 224.00 C 266.66 223.99 261.33 224.00 256.00 224.00 C 256.00 218.67 255.99 213.33 256.00 208.00 Z" />
<path fill="#00ffff" opacity="1.00" d=" M 288.00 208.00 C 293.33 208.00 298.66 207.99 304.00 208.00 C 303.99 213.33 303.99 218.67 304.00 224.01 C 298.65 223.99 293.33 224.00 288.00 224.00 C 288.00 218.67 287.99 213.33 288.00 208.00 Z" />
<path fill="#00ffff" opacity="1.00" d=" M 320.01 208.00 C 325.34 208.00 330.67 207.99 336.02 208.00 C 336.01 213.14 335.99 218.27 336.01 223.42 C 330.67 223.96 325.31 224.34 319.98 224.81 C 320.01 229.87 319.98 234.93 319.99 240.00 C 314.68 239.99 309.38 240.00 304.08 240.00 C 304.03 234.66 304.02 229.34 304.00 224.01 C 309.32 223.99 314.65 223.99 319.98 223.98 C 319.98 218.65 319.99 213.32 320.01 208.00 Z" />
<path fill="#00ffff" opacity="1.00" d=" M 48.01 224.00 C 53.34 224.00 58.66 223.99 64.00 224.00 C 63.99 229.30 64.00 234.63 64.00 239.94 C 58.66 240.08 53.32 240.17 47.98 240.43 C 47.99 245.61 47.99 250.81 48.00 256.00 C 42.66 255.99 37.34 256.00 32.01 256.00 C 32.00 250.67 32.00 245.34 32.00 240.02 C 37.33 240.01 42.65 239.99 47.98 239.98 C 48.00 234.65 48.01 229.32 48.01 224.00 Z" />
<path fill="#00ffff" opacity="1.00" d=" M 80.00 224.00 C 85.33 224.00 90.66 223.99 96.00 224.00 C 96.00 229.32 96.00 234.67 96.00 240.00 C 90.66 239.99 85.33 240.01 80.00 240.00 C 80.00 234.67 80.00 229.33 80.00 224.00 Z" />
<path fill="#00ffff" opacity="1.00" d=" M 112.00 224.00 C 117.33 224.00 122.66 223.99 128.00 224.00 C 128.00 229.33 128.00 234.67 128.00 240.00 C 122.66 239.99 117.33 240.00 112.00 240.00 C 112.00 234.67 112.00 229.32 112.00 224.00 Z" />
<path fill="#00ffff" opacity="1.00" d=" M 144.00 224.00 C 149.33 224.00 154.66 223.99 160.00 224.00 C 159.99 229.33 160.00 234.67 160.00 240.00 C 154.66 239.99 149.33 240.00 144.00 240.00 C 144.00 234.67 144.00 229.33 144.00 224.00 Z" />
<path fill="#00ffff" opacity="1.00" d=" M 176.00 224.00 C 181.33 224.00 186.66 223.99 192.00 224.00 C 191.99 229.33 192.00 234.67 192.00 240.00 C 186.66 239.99 181.33 240.00 176.00 240.00 C 176.00 234.67 175.99 229.33 176.00 224.00 Z" />
<path fill="#00ffff" opacity="1.00" d=" M 208.00 224.00 C 213.33 224.00 218.66 223.99 224.00 224.00 C 223.99 229.33 224.00 234.67 224.00 240.00 C 218.66 239.99 213.33 240.00 208.00 240.00 C 208.00 234.67 207.99 229.33 208.00 224.00 Z" />
<path fill="#00ffff" opacity="1.00" d=" M 240.00 224.00 C 245.33 224.00 250.66 223.99 256.00 224.00 C 255.99 229.32 256.00 234.67 256.00 240.00 C 250.66 239.99 245.33 240.00 240.00 240.00 C 240.00 234.67 239.99 229.33 240.00 224.00 Z" />
<path fill="#00ffff" opacity="1.00" d=" M 272.00 224.00 C 277.33 224.00 282.66 223.99 288.00 224.00 C 287.99 229.32 288.00 234.67 288.00 240.00 C 282.66 239.99 277.33 240.00 272.00 240.00 C 272.00 234.67 271.99 229.32 272.00 224.00 Z" />
<path fill="#00ffff" opacity="1.00" d=" M 64.00 239.94 C 69.33 239.98 74.66 239.97 80.00 240.00 C 80.00 245.33 80.00 250.67 80.00 256.00 C 74.66 255.99 69.33 256.00 64.00 256.00 C 64.00 250.65 63.99 245.28 64.00 239.94 Z" />
<path fill="#00ffff" opacity="1.00" d=" M 96.00 240.00 C 101.33 240.00 106.66 239.99 112.00 240.00 C 112.00 245.32 112.00 250.67 112.00 256.00 C 106.66 255.99 101.33 256.00 96.00 256.00 C 96.00 250.67 96.00 245.32 96.00 240.00 Z" />
<path fill="#00ffff" opacity="1.00" d=" M 128.00 240.00 C 133.33 240.00 138.66 239.99 144.00 240.00 C 143.99 245.32 144.00 250.67 144.00 256.00 C 138.66 255.99 133.33 256.00 128.00 256.00 C 128.00 250.67 128.00 245.32 128.00 240.00 Z" />
<path fill="#00ffff" opacity="1.00" d=" M 160.00 240.00 C 165.33 240.00 170.66 239.99 176.00 240.00 C 175.99 245.32 176.00 250.67 176.00 256.00 C 170.66 255.99 165.33 256.00 160.00 256.00 C 160.00 250.67 159.99 245.32 160.00 240.00 Z" />
<path fill="#00ffff" opacity="1.00" d=" M 192.00 240.00 C 197.33 240.00 202.66 239.99 208.00 240.00 C 207.99 245.32 208.00 250.67 208.00 256.00 C 202.66 255.99 197.33 256.00 192.00 256.00 C 192.00 250.67 191.99 245.32 192.00 240.00 Z" />
<path fill="#00ffff" opacity="1.00" d=" M 224.00 240.00 C 229.33 240.00 234.66 239.99 240.00 240.00 C 239.99 245.32 240.00 250.67 240.00 256.00 C 234.66 255.99 229.33 256.00 224.00 256.00 C 224.00 250.67 223.99 245.32 224.00 240.00 Z" />
<path fill="#00ffff" opacity="1.00" d=" M 256.00 240.00 C 261.33 240.00 266.66 239.99 272.00 240.00 C 271.99 245.32 272.00 250.67 272.00 256.00 C 266.66 255.99 261.33 256.00 256.00 256.00 C 256.00 250.67 255.99 245.32 256.00 240.00 Z" />
<path fill="#00ffff" opacity="1.00" d=" M 288.00 240.00 C 293.36 240.00 298.71 239.99 304.08 240.00 C 303.92 245.33 303.85 250.69 303.56 256.02 C 298.36 256.00 293.19 256.01 288.00 256.00 C 288.00 250.67 287.99 245.33 288.00 240.00 Z" />
<path fill="#00ffff" opacity="1.00" d=" M 48.00 256.00 C 53.33 256.00 58.66 255.99 64.00 256.00 C 64.00 261.33 64.00 266.67 64.00 272.00 C 58.66 271.97 53.33 271.98 48.00 271.94 C 48.00 266.63 47.99 261.30 48.00 256.00 Z" />
<path fill="#00ffff" opacity="1.00" d=" M 80.00 256.00 C 85.33 256.00 90.66 255.99 96.00 256.00 C 96.00 261.32 96.00 266.67 96.00 272.00 C 90.66 271.99 85.33 272.00 80.00 272.00 C 80.00 266.67 80.00 261.32 80.00 256.00 Z" />
<path fill="#00ffff" opacity="1.00" d=" M 112.00 256.00 C 117.33 256.00 122.66 255.99 128.00 256.00 C 128.00 261.32 128.00 266.67 128.00 272.00 C 122.66 271.99 117.33 272.00 112.00 272.00 C 112.00 266.67 112.00 261.32 112.00 256.00 Z" />
<path fill="#00ffff" opacity="1.00" d=" M 144.00 256.00 C 149.33 256.00 154.66 255.99 160.00 256.00 C 159.99 261.32 160.00 266.67 160.00 272.00 C 154.66 271.99 149.33 272.00 144.00 272.00 C 144.00 266.67 143.99 261.32 144.00 256.00 Z" />
<path fill="#00ffff" opacity="1.00" d=" M 176.00 256.00 C 181.33 256.00 186.66 255.99 192.00 256.00 C 191.99 261.32 192.00 266.67 192.00 272.00 C 186.66 271.99 181.33 272.00 176.00 272.00 C 176.00 266.67 175.99 261.32 176.00 256.00 Z" />
<path fill="#00ffff" opacity="1.00" d=" M 208.00 256.00 C 213.33 256.00 218.66 255.99 224.00 256.00 C 223.99 261.32 224.00 266.67 224.00 272.00 C 218.66 271.99 213.33 272.00 208.00 272.00 C 208.00 266.67 207.99 261.32 208.00 256.00 Z" />
<path fill="#00ffff" opacity="1.00" d=" M 240.00 256.00 C 245.33 256.00 250.66 255.99 256.00 256.00 C 255.99 261.32 256.00 266.67 256.00 272.00 C 250.66 271.99 245.33 272.00 240.00 272.00 C 240.00 266.67 239.99 261.32 240.00 256.00 Z" />
<path fill="#00ffff" opacity="1.00" d=" M 272.00 256.00 C 277.33 256.00 282.66 255.99 288.00 256.00 C 288.00 261.34 287.99 266.66 288.01 272.00 C 282.66 271.99 277.34 272.00 272.00 272.00 C 272.00 266.67 271.99 261.32 272.00 256.00 Z" />
<path fill="#00ffff" opacity="1.00" d=" M 31.98 272.43 C 37.32 272.17 42.66 272.07 48.00 271.94 C 48.00 277.28 48.00 282.65 48.00 288.00 C 42.66 287.99 37.33 288.00 32.00 288.00 C 31.99 282.81 31.99 277.61 31.98 272.43 Z" />
<path fill="#00ffff" opacity="1.00" d=" M 64.00 272.00 C 69.33 272.01 74.66 271.99 80.00 272.00 C 80.00 277.32 80.00 282.67 80.00 288.00 C 74.66 287.99 69.33 288.00 64.00 288.00 C 64.00 282.67 64.00 277.33 64.00 272.00 Z" />
<path fill="#00ffff" opacity="1.00" d=" M 96.00 272.00 C 101.33 272.00 106.66 271.99 112.00 272.00 C 112.00 277.32 112.00 282.67 112.00 288.00 C 106.66 287.99 101.33 288.00 96.00 288.00 C 96.00 282.67 96.00 277.32 96.00 272.00 Z" />
<path fill="#00ffff" opacity="1.00" d=" M 128.00 272.00 C 133.33 272.00 138.66 271.99 144.00 272.00 C 143.99 277.32 144.00 282.67 144.00 288.00 C 138.66 287.99 133.33 288.00 128.00 288.00 C 128.00 282.67 128.00 277.32 128.00 272.00 Z" />
<path fill="#00ffff" opacity="1.00" d=" M 160.00 272.00 C 165.33 272.00 170.66 271.99 176.00 272.00 C 175.99 277.32 176.00 282.67 176.00 288.00 C 170.66 287.99 165.33 288.00 160.00 288.00 C 160.00 282.67 159.99 277.32 160.00 272.00 Z" />
<path fill="#00ffff" opacity="1.00" d=" M 192.00 272.00 C 197.33 272.00 202.66 271.99 208.00 272.00 C 207.99 277.32 208.00 282.67 208.00 288.00 C 202.66 287.99 197.33 288.00 192.00 288.00 C 192.00 282.67 191.99 277.32 192.00 272.00 Z" />
<path fill="#00ffff" opacity="1.00" d=" M 224.00 272.00 C 229.33 272.00 234.66 271.99 240.00 272.00 C 239.99 277.32 240.00 282.67 240.00 288.00 C 234.66 287.99 229.33 288.00 224.00 288.00 C 224.00 282.67 223.99 277.32 224.00 272.00 Z" />
<path fill="#00ffff" opacity="1.00" d=" M 256.00 272.00 C 261.33 272.00 266.66 271.99 272.00 272.00 C 271.99 277.32 272.00 282.67 272.00 288.01 C 266.66 287.99 261.33 288.00 256.00 288.00 C 256.00 282.67 255.99 277.32 256.00 272.00 Z" />
<path fill="#00ffff" opacity="1.00" d=" M 288.01 272.00 C 293.34 272.00 298.67 271.99 304.02 272.00 C 304.01 277.16 303.99 282.30 304.00 287.47 C 298.80 287.91 293.58 288.15 288.38 288.49 C 288.19 293.65 288.02 298.82 287.85 304.00 C 282.57 303.99 277.28 303.98 272.00 303.99 C 271.99 298.65 272.00 293.33 272.00 288.01 C 277.32 287.99 282.65 287.98 287.98 287.98 C 287.98 282.65 287.99 277.32 288.01 272.00 Z" />
<path fill="#00ffff" opacity="1.00" d=" M 16.02 288.00 C 21.34 288.00 26.67 287.99 32.00 288.00 C 32.00 293.32 32.00 298.67 32.00 304.00 C 26.63 304.00 21.27 303.98 15.90 303.99 C 15.94 298.65 15.98 293.33 16.02 288.00 Z" />
<path fill="#00ffff" opacity="1.00" d=" M 48.00 288.00 C 53.33 288.00 58.66 287.99 64.00 288.00 C 64.00 293.32 64.00 298.67 64.00 304.00 C 58.67 304.00 53.33 303.99 48.00 304.00 C 48.00 298.67 48.00 293.32 48.00 288.00 Z" />
<path fill="#00ffff" opacity="1.00" d=" M 80.00 288.00 C 85.33 288.00 90.66 287.99 96.00 288.00 C 96.00 293.32 96.00 298.67 96.00 304.00 C 90.67 304.00 85.33 303.99 80.00 304.00 C 80.00 298.67 80.00 293.32 80.00 288.00 Z" />
<path fill="#00ffff" opacity="1.00" d=" M 112.00 288.00 C 117.33 288.00 122.66 287.99 128.00 288.00 C 128.00 293.32 128.00 298.67 128.00 304.00 C 122.67 304.00 117.33 303.99 112.00 304.00 C 112.00 298.67 112.00 293.32 112.00 288.00 Z" />
<path fill="#00ffff" opacity="1.00" d=" M 144.00 288.00 C 149.33 288.00 154.66 287.99 160.00 288.00 C 159.99 293.32 160.00 298.67 160.00 304.00 C 154.67 304.00 149.33 303.99 144.00 304.00 C 144.00 298.67 143.99 293.32 144.00 288.00 Z" />
<path fill="#00ffff" opacity="1.00" d=" M 176.00 288.00 C 181.33 288.00 186.66 287.99 192.00 288.00 C 191.99 293.32 192.00 298.67 192.00 304.00 C 186.67 304.00 181.33 303.99 176.00 304.00 C 176.00 298.67 175.99 293.32 176.00 288.00 Z" />
<path fill="#00ffff" opacity="1.00" d=" M 208.00 288.00 C 213.33 288.00 218.66 287.99 224.00 288.00 C 223.99 293.32 224.00 298.67 224.00 304.00 C 218.67 304.00 213.33 303.99 208.00 304.00 C 208.00 298.67 207.99 293.32 208.00 288.00 Z" />
<path fill="#00ffff" opacity="1.00" d=" M 240.00 288.00 C 245.33 288.00 250.66 287.99 256.00 288.00 C 255.99 293.33 256.00 298.67 256.00 304.01 C 250.67 304.02 245.32 303.99 240.00 304.00 C 240.00 298.67 239.99 293.32 240.00 288.00 Z" />
</g>
<g id="#c0c0c0ff">
<path fill="#c0c0c0" opacity="1.00" d=" M 176.00 48.00 C 181.09 47.99 186.19 47.99 191.29 47.99 C 191.66 53.32 191.93 58.65 192.22 63.99 C 197.43 63.98 202.63 63.98 207.84 63.99 C 208.08 58.65 208.34 53.32 208.67 47.98 C 213.77 47.99 218.89 48.00 224.00 48.00 C 223.99 53.31 224.00 58.62 224.00 63.93 C 218.65 64.07 213.32 64.17 207.98 64.43 C 207.98 69.62 207.99 74.81 208.00 80.00 C 202.68 80.00 197.38 80.00 192.08 80.00 C 191.92 74.66 191.84 69.33 191.56 64.00 C 186.37 63.98 181.19 63.98 176.00 63.93 C 176.00 58.62 175.99 53.31 176.00 48.00 Z" />
<path fill="#c0c0c0" opacity="1.00" d=" M 272.00 48.00 C 277.09 47.99 282.19 47.99 287.29 47.99 C 287.66 53.32 287.93 58.65 288.22 63.99 C 293.42 63.98 298.63 63.98 303.84 63.99 C 304.07 58.65 304.34 53.32 304.67 47.98 C 309.77 47.99 314.89 48.00 320.00 48.00 C 319.99 53.31 320.00 58.62 319.99 63.93 C 314.64 64.07 309.32 64.17 303.98 64.43 C 303.98 69.62 303.99 74.81 304.00 80.00 C 298.68 80.00 293.38 80.00 288.08 80.00 C 287.91 74.66 287.84 69.33 287.56 64.00 C 282.36 63.98 277.19 63.98 272.00 63.93 C 272.00 58.62 271.99 53.31 272.00 48.00 Z" />
<path fill="#c0c0c0" opacity="1.00" d=" M 368.00 48.00 C 373.08 47.99 378.19 47.99 383.29 47.99 C 383.66 53.32 383.93 58.65 384.22 63.99 C 389.42 63.98 394.63 63.98 399.84 63.99 C 400.07 58.65 400.33 53.31 400.67 47.98 C 405.77 47.99 410.90 48.01 416.01 48.00 C 415.99 53.29 415.97 58.57 415.96 63.85 C 410.73 64.02 405.52 64.19 400.30 64.37 C 400.18 69.58 400.05 74.79 400.01 80.00 C 394.69 80.00 389.39 80.00 384.09 80.00 C 383.92 74.66 383.85 69.33 383.56 64.00 C 378.36 63.98 373.19 63.98 368.00 63.93 C 368.00 58.62 367.99 53.31 368.00 48.00 Z" />
<path fill="#c0c0c0" opacity="1.00" d=" M 128.01 63.99 C 133.19 64.00 138.37 63.99 143.56 63.98 C 143.84 69.29 143.92 74.61 144.07 79.94 C 138.70 80.08 133.34 80.17 127.98 80.43 C 127.99 85.62 127.99 90.81 128.00 96.00 C 122.66 96.00 117.34 96.00 112.01 96.00 C 112.00 90.67 112.00 85.35 112.00 80.02 C 117.33 80.01 122.65 79.99 127.98 79.98 C 128.00 74.65 128.01 69.32 128.01 63.99 Z" />
<path fill="#c0c0c0" opacity="1.00" d=" M 159.99 64.43 C 165.32 64.17 170.65 64.07 176.00 63.93 C 175.99 69.29 176.00 74.64 176.00 80.00 C 170.66 80.00 165.33 80.01 159.99 80.00 C 159.98 74.81 159.98 69.62 159.99 64.43 Z" />
<path fill="#c0c0c0" opacity="1.00" d=" M 224.00 63.93 C 229.19 63.98 234.36 63.98 239.56 64.00 C 239.84 69.33 239.92 74.66 240.08 80.00 C 234.71 80.00 229.36 80.00 224.00 80.00 C 224.00 74.64 223.99 69.29 224.00 63.93 Z" />
<path fill="#c0c0c0" opacity="1.00" d=" M 255.98 64.43 C 261.32 64.17 266.65 64.07 272.00 63.93 C 271.99 69.29 272.00 74.64 272.00 80.00 C 266.66 80.00 261.33 80.00 256.00 80.00 C 255.99 74.81 255.98 69.62 255.98 64.43 Z" />
<path fill="#c0c0c0" opacity="1.00" d=" M 319.99 63.93 C 325.18 63.98 330.36 63.98 335.56 64.00 C 335.84 69.33 335.91 74.66 336.08 80.00 C 330.71 80.00 325.36 80.00 320.01 80.00 C 320.01 74.64 319.99 69.29 319.99 63.93 Z" />
<path fill="#c0c0c0" opacity="1.00" d=" M 351.98 64.43 C 357.32 64.17 362.64 64.07 368.00 63.93 C 367.98 69.29 368.00 74.64 368.00 80.00 C 362.65 80.00 357.33 80.00 352.00 80.00 C 351.99 74.81 351.97 69.62 351.98 64.43 Z" />
<path fill="#c0c0c0" opacity="1.00" d=" M 432.01 64.02 C 437.33 63.99 442.66 63.96 448.00 63.92 C 448.01 191.94 447.99 319.96 448.01 447.98 C 442.68 447.99 437.35 448.01 432.04 448.04 C 432.01 453.35 431.98 458.68 431.96 464.00 C 346.61 463.99 261.26 464.01 175.91 463.99 C 170.60 463.99 165.30 463.99 160.00 464.01 C 160.00 458.67 160.00 453.33 159.99 447.99 C 245.31 448.02 330.63 447.98 415.95 448.01 C 415.98 442.68 416.01 437.36 416.04 432.04 C 421.36 432.01 426.68 431.98 432.00 431.96 C 431.99 426.64 431.98 421.32 431.98 416.00 C 431.97 410.65 432.00 405.33 432.01 400.00 C 432.00 389.33 432.00 378.66 432.00 368.00 C 431.98 362.65 432.00 357.33 432.00 352.00 C 431.99 341.33 431.99 330.66 432.00 320.00 C 431.99 314.66 432.00 309.34 432.00 304.00 C 431.99 293.33 431.99 282.66 432.00 272.00 C 431.99 266.66 432.00 261.33 432.00 256.00 C 431.99 245.33 431.99 234.66 432.00 224.00 C 431.99 218.66 432.01 213.33 432.00 208.00 C 432.00 197.33 431.98 186.66 431.99 176.00 C 431.99 170.66 432.00 165.33 432.01 159.99 C 421.33 160.00 410.66 160.01 399.99 160.00 C 400.04 149.34 400.03 138.68 399.98 128.02 C 405.31 128.00 410.64 127.99 415.99 127.98 C 416.01 117.32 415.99 106.67 416.01 96.01 C 421.33 96.00 426.66 95.99 431.99 95.98 C 432.00 85.33 431.98 74.67 432.01 64.02 Z" />
<path fill="#c0c0c0" opacity="1.00" d=" M 144.07 79.94 C 149.38 79.98 154.68 79.98 159.99 80.00 C 160.01 85.33 160.02 90.67 160.06 96.00 C 154.70 96.00 149.35 96.00 143.99 96.00 C 144.02 90.65 144.03 85.29 144.07 79.94 Z" />
<path fill="#c0c0c0" opacity="1.00" d=" M 176.00 80.00 C 181.36 80.00 186.71 80.00 192.08 80.00 C 192.03 85.33 192.02 90.67 191.99 96.00 C 186.65 96.00 181.33 96.00 176.00 96.00 C 176.00 90.67 175.99 85.33 176.00 80.00 Z" />
<path fill="#c0c0c0" opacity="1.00" d=" M 208.00 80.00 C 213.33 80.00 218.66 80.00 224.00 80.00 C 223.99 85.33 224.00 90.67 224.00 96.00 C 218.66 96.00 213.33 96.00 208.00 96.00 C 208.00 90.67 207.99 85.33 208.00 80.00 Z" />
<path fill="#c0c0c0" opacity="1.00" d=" M 240.08 80.00 C 245.38 80.00 250.68 80.00 256.00 80.00 C 255.99 85.33 256.00 90.67 256.00 96.00 C 250.65 96.00 245.33 96.00 239.99 96.00 C 240.02 90.67 240.03 85.33 240.08 80.00 Z" />
<path fill="#c0c0c0" opacity="1.00" d=" M 272.00 80.00 C 277.36 80.00 282.71 80.00 288.08 80.00 C 288.03 85.33 288.02 90.67 287.99 96.00 C 282.65 96.00 277.33 96.00 272.00 96.00 C 272.00 90.67 271.99 85.33 272.00 80.00 Z" />
<path fill="#c0c0c0" opacity="1.00" d=" M 304.00 80.00 C 309.33 80.00 314.66 80.00 320.01 80.00 C 319.97 85.33 319.98 90.67 319.94 96.00 C 314.61 96.00 309.31 96.00 304.00 96.00 C 304.00 90.67 303.99 85.33 304.00 80.00 Z" />
<path fill="#c0c0c0" opacity="1.00" d=" M 336.08 80.00 C 341.38 80.00 346.68 80.00 352.00 80.00 C 351.98 85.33 352.00 90.67 352.00 96.00 C 346.65 96.00 341.33 96.00 335.99 96.00 C 336.02 90.67 336.03 85.33 336.08 80.00 Z" />
<path fill="#c0c0c0" opacity="1.00" d=" M 368.00 80.00 C 373.36 80.00 378.71 80.00 384.09 80.00 C 384.03 85.32 383.99 90.65 383.96 95.98 C 378.63 95.99 373.31 96.00 368.00 96.01 C 367.99 90.67 367.98 85.33 368.00 80.00 Z" />
<path fill="#c0c0c0" opacity="1.00" d=" M 128.00 96.00 C 133.33 96.00 138.66 96.00 143.99 96.00 C 143.99 101.33 143.99 106.67 144.00 112.01 C 138.66 111.98 133.33 111.98 128.00 111.94 C 128.00 106.63 127.99 101.31 128.00 96.00 Z" />
<path fill="#c0c0c0" opacity="1.00" d=" M 160.06 96.00 C 165.37 96.00 170.68 96.00 176.00 96.00 C 175.99 101.33 176.00 106.67 176.00 112.01 C 170.66 112.00 165.33 112.00 160.00 111.99 C 160.00 117.33 160.00 122.66 160.00 128.00 C 165.33 127.99 170.66 127.99 176.00 127.99 C 175.99 133.32 176.00 138.66 176.00 143.99 C 170.69 143.99 165.39 144.01 160.09 144.01 C 159.92 138.66 159.84 133.32 159.56 127.98 C 154.39 127.98 149.24 128.00 144.08 128.00 C 144.03 122.66 144.01 117.34 144.00 112.01 C 149.19 112.02 154.37 112.00 159.56 112.01 C 159.84 106.68 159.91 101.34 160.06 96.00 Z" />
<path fill="#c0c0c0" opacity="1.00" d=" M 191.99 96.00 C 197.33 96.00 202.66 96.00 208.00 96.00 C 207.99 101.33 208.00 106.67 208.00 112.00 C 202.66 111.99 197.34 111.98 192.00 111.99 C 192.00 106.66 191.99 101.33 191.99 96.00 Z" />
<path fill="#c0c0c0" opacity="1.00" d=" M 224.00 96.00 C 229.33 96.00 234.65 96.00 239.99 96.00 C 239.98 101.33 240.00 106.67 240.00 112.00 C 234.66 112.00 229.33 112.00 224.00 112.00 C 224.00 106.67 223.99 101.33 224.00 96.00 Z" />
<path fill="#c0c0c0" opacity="1.00" d=" M 256.00 96.00 C 261.33 96.00 266.66 96.00 272.00 96.00 C 271.99 101.33 272.00 106.67 272.00 112.00 C 266.66 112.00 261.33 112.00 256.00 112.00 C 256.00 106.67 255.99 101.33 256.00 96.00 Z" />
<path fill="#c0c0c0" opacity="1.00" d=" M 287.99 96.00 C 293.33 96.00 298.65 96.00 304.00 96.00 C 303.99 101.34 304.00 106.68 304.00 112.02 C 298.66 112.01 293.34 111.99 288.00 111.99 C 288.00 106.66 287.98 101.33 287.99 96.00 Z" />
<path fill="#c0c0c0" opacity="1.00" d=" M 319.94 96.00 C 325.29 96.00 330.63 96.00 335.99 96.00 C 335.98 101.33 336.00 106.67 336.00 112.00 C 330.81 112.00 325.61 112.00 320.43 112.02 C 320.17 106.68 320.07 101.34 319.94 96.00 Z" />
<path fill="#c0c0c0" opacity="1.00" d=" M 352.00 96.00 C 357.33 96.00 362.65 96.00 368.00 96.01 C 368.02 101.34 368.02 106.67 368.08 112.00 C 362.70 112.00 357.36 112.00 352.00 112.00 C 352.00 106.67 351.99 101.33 352.00 96.00 Z" />
<path fill="#c0c0c0" opacity="1.00" d=" M 111.98 112.44 C 117.32 112.16 122.65 112.08 128.00 111.94 C 127.99 117.29 128.00 122.65 128.00 128.00 C 122.66 127.99 117.33 128.00 112.00 128.00 C 111.99 122.81 111.99 117.62 111.98 112.44 Z" />
<path fill="#c0c0c0" opacity="1.00" d=" M 336.00 112.00 C 341.34 112.00 346.65 112.00 352.00 112.00 C 351.99 117.33 352.00 122.67 352.00 128.01 C 346.65 127.98 341.33 127.98 336.00 127.94 C 336.00 122.63 335.99 117.31 336.00 112.00 Z" />
<path fill="#c0c0c0" opacity="1.00" d=" M 368.08 112.00 C 373.38 112.00 378.67 112.00 383.99 112.00 C 383.98 117.32 383.98 122.64 383.99 127.96 C 378.65 127.99 373.32 128.02 367.99 128.04 C 368.00 133.36 368.01 138.68 368.02 144.00 C 362.67 143.99 357.34 144.00 352.01 144.00 C 351.99 138.67 352.00 133.34 352.00 128.01 C 357.19 128.02 362.36 128.00 367.56 128.01 C 367.85 122.68 367.91 117.34 368.08 112.00 Z" />
<path fill="#c0c0c0" opacity="1.00" d=" M 96.01 128.00 C 101.34 128.00 106.66 127.99 112.00 128.00 C 111.99 133.31 112.00 138.63 112.00 143.94 C 106.65 144.08 101.32 144.16 95.98 144.44 C 95.99 149.62 95.99 154.81 96.00 160.00 C 90.66 159.99 85.34 160.00 80.01 160.00 C 80.00 154.67 80.00 149.35 80.00 144.02 C 85.33 144.01 90.65 143.99 95.98 143.98 C 96.00 138.65 96.01 133.33 96.01 128.00 Z" />
<path fill="#c0c0c0" opacity="1.00" d=" M 128.00 128.00 C 133.36 128.00 138.71 127.99 144.08 128.00 C 143.92 133.33 143.85 138.68 143.56 144.01 C 138.37 144.00 133.19 144.02 128.00 144.01 C 128.00 138.67 128.00 133.33 128.00 128.00 Z" />
<path fill="#c0c0c0" opacity="1.00" d=" M 192.00 128.01 C 197.33 128.01 202.66 128.00 208.00 128.00 C 207.99 133.33 208.00 138.67 208.00 144.00 C 202.66 144.00 197.33 144.01 192.00 144.00 C 192.00 138.67 191.99 133.33 192.00 128.01 Z" />
<path fill="#c0c0c0" opacity="1.00" d=" M 224.00 128.00 C 229.33 128.00 234.66 127.99 240.00 128.00 C 239.99 133.33 240.00 138.67 240.00 144.00 C 234.66 143.99 229.33 144.00 224.00 144.00 C 224.00 138.67 223.99 133.33 224.00 128.00 Z" />
<path fill="#c0c0c0" opacity="1.00" d=" M 256.00 128.00 C 261.33 128.00 266.66 127.99 272.00 128.00 C 271.99 133.33 272.00 138.66 272.00 143.99 C 266.66 143.99 261.33 144.00 256.00 144.00 C 256.00 138.67 255.99 133.33 256.00 128.00 Z" />
<path fill="#c0c0c0" opacity="1.00" d=" M 288.00 128.01 C 293.33 128.01 298.65 127.98 304.00 127.98 C 303.99 133.18 303.98 138.36 303.98 143.57 C 309.32 143.83 314.64 143.91 319.99 144.06 C 319.98 149.35 320.00 154.65 320.00 159.94 C 314.65 160.08 309.32 160.17 303.98 160.43 C 303.98 165.62 303.99 170.81 304.00 176.00 C 298.65 175.99 293.33 176.00 288.00 176.00 C 287.99 170.65 288.00 165.32 288.00 159.98 C 293.33 159.98 298.66 160.00 304.00 160.02 C 304.00 154.67 304.00 149.33 304.00 143.99 C 298.66 144.00 293.33 144.01 288.00 144.02 C 288.00 138.68 287.99 133.34 288.00 128.01 Z" />
<path fill="#c0c0c0" opacity="1.00" d=" M 319.98 128.44 C 325.32 128.16 330.65 128.08 336.00 127.94 C 335.98 133.29 336.00 138.64 336.00 143.99 C 330.65 144.01 325.33 144.02 319.99 144.06 C 319.99 138.85 319.98 133.64 319.98 128.44 Z" />
<path fill="#c0c0c0" opacity="1.00" d=" M 112.00 143.94 C 117.33 143.98 122.66 143.98 128.00 144.01 C 128.00 149.34 128.00 154.66 128.00 160.00 C 122.66 159.99 117.33 160.00 112.00 160.00 C 112.00 154.65 111.99 149.29 112.00 143.94 Z" />
<path fill="#c0c0c0" opacity="1.00" d=" M 336.00 143.99 C 341.34 143.99 346.66 143.99 352.01 144.00 C 351.99 149.33 351.98 154.65 351.98 159.98 C 346.65 159.99 341.32 160.00 336.00 160.02 C 335.99 154.68 335.99 149.33 336.00 143.99 Z" />
<path fill="#c0c0c0" opacity="1.00" d=" M 96.00 160.00 C 101.33 160.00 106.66 159.99 112.00 160.00 C 112.00 165.33 112.00 170.67 112.00 176.00 C 106.66 175.97 101.33 175.98 96.00 175.94 C 96.00 170.63 95.99 165.31 96.00 160.00 Z" />
<path fill="#c0c0c0" opacity="1.00" d=" M 128.00 160.00 C 133.19 159.99 138.37 159.98 143.56 159.98 C 143.85 165.32 143.92 170.65 144.08 176.00 C 138.71 175.99 133.36 176.00 128.00 176.00 C 128.00 170.66 128.00 165.32 128.00 160.00 Z" />
<path fill="#c0c0c0" opacity="1.00" d=" M 160.00 159.99 C 165.33 159.99 170.66 160.00 176.00 160.01 C 175.99 165.33 176.00 170.67 176.00 176.00 C 170.66 175.99 165.33 176.00 160.00 176.00 C 160.00 170.66 159.99 165.32 160.00 159.99 Z" />
<path fill="#c0c0c0" opacity="1.00" d=" M 192.00 160.00 C 197.33 160.00 202.66 159.99 208.00 160.00 C 207.99 165.33 208.00 170.67 208.00 176.00 C 202.66 175.99 197.33 176.00 192.00 176.00 C 192.00 170.67 191.99 165.33 192.00 160.00 Z" />
<path fill="#c0c0c0" opacity="1.00" d=" M 224.00 160.00 C 229.33 160.00 234.66 159.99 240.00 160.00 C 239.99 165.33 240.00 170.67 240.00 176.00 C 234.66 175.99 229.33 176.00 224.00 176.00 C 224.00 170.67 223.99 165.33 224.00 160.00 Z" />
<path fill="#c0c0c0" opacity="1.00" d=" M 256.00 160.00 C 261.33 160.01 266.66 160.00 272.00 160.01 C 271.99 165.33 272.00 170.67 272.00 176.00 C 266.66 175.99 261.33 176.00 256.00 176.00 C 256.00 170.67 255.99 165.33 256.00 160.00 Z" />
<path fill="#c0c0c0" opacity="1.00" d=" M 320.00 159.94 C 325.33 159.98 330.65 159.98 336.00 160.02 C 336.02 165.34 336.03 170.67 336.08 176.00 C 330.71 175.99 325.36 176.00 320.00 176.00 C 320.00 170.65 319.99 165.29 320.00 159.94 Z" />
<path fill="#c0c0c0" opacity="1.00" d=" M 79.98 176.43 C 85.32 176.17 90.65 176.08 96.00 175.94 C 95.99 181.29 96.00 186.65 96.00 192.00 C 90.66 191.99 85.33 192.00 80.00 192.00 C 79.99 186.81 79.99 181.62 79.98 176.43 Z" />
<path fill="#c0c0c0" opacity="1.00" d=" M 112.00 176.00 C 117.33 176.01 122.66 176.00 128.00 176.00 C 128.00 181.33 128.00 186.67 128.00 192.00 C 122.66 191.99 117.33 192.00 112.00 192.00 C 112.00 186.67 112.00 181.33 112.00 176.00 Z" />
<path fill="#c0c0c0" opacity="1.00" d=" M 144.08 176.00 C 149.39 176.00 154.69 175.99 160.00 176.00 C 159.99 181.33 160.00 186.67 160.00 192.00 C 154.66 191.99 149.33 192.00 143.99 192.00 C 144.02 186.67 144.03 181.32 144.08 176.00 Z" />
<path fill="#c0c0c0" opacity="1.00" d=" M 176.00 176.00 C 181.33 176.00 186.66 175.99 192.00 176.00 C 191.99 181.33 192.00 186.67 192.00 192.00 C 186.66 191.99 181.33 192.00 176.00 192.00 C 176.00 186.67 175.99 181.33 176.00 176.00 Z" />
<path fill="#c0c0c0" opacity="1.00" d=" M 208.00 176.00 C 213.33 176.00 218.66 175.99 224.00 176.00 C 223.99 181.33 224.00 186.67 224.00 192.00 C 218.66 191.99 213.33 192.00 208.00 192.00 C 208.00 186.67 207.99 181.33 208.00 176.00 Z" />
<path fill="#c0c0c0" opacity="1.00" d=" M 240.00 176.00 C 245.33 176.00 250.66 175.99 256.00 176.00 C 255.99 181.33 256.00 186.67 256.00 192.00 C 250.66 191.99 245.33 192.00 240.00 192.00 C 240.00 186.67 239.99 181.33 240.00 176.00 Z" />
<path fill="#c0c0c0" opacity="1.00" d=" M 272.00 176.00 C 277.33 176.00 282.66 175.99 288.00 176.00 C 287.99 181.33 288.00 186.67 288.00 192.00 C 282.66 191.99 277.33 192.00 272.00 192.00 C 272.00 186.67 271.99 181.33 272.00 176.00 Z" />
<path fill="#c0c0c0" opacity="1.00" d=" M 304.00 176.00 C 309.33 176.00 314.65 175.99 320.00 176.00 C 319.99 181.33 320.00 186.67 320.00 192.00 C 314.65 192.00 309.33 192.00 304.00 192.00 C 304.00 186.67 303.99 181.33 304.00 176.00 Z" />
<path fill="#c0c0c0" opacity="1.00" d=" M 336.08 176.00 C 341.38 176.00 346.67 176.00 351.99 176.00 C 351.98 181.32 351.98 186.64 351.99 191.96 C 346.65 191.99 341.32 192.01 335.99 192.04 C 336.00 197.36 336.01 202.68 336.02 208.00 C 330.67 207.99 325.34 208.00 320.01 208.00 C 319.99 202.66 320.00 197.34 320.00 192.00 C 325.19 192.01 330.36 192.00 335.56 192.02 C 335.85 186.69 335.92 181.34 336.08 176.00 Z" />
<path fill="#c0c0c0" opacity="1.00" d=" M 384.01 176.00 C 394.67 176.00 405.33 176.00 416.00 176.00 C 416.00 186.67 416.00 197.33 416.00 208.00 C 400.00 208.00 384.00 208.00 368.00 208.00 C 368.00 202.67 368.00 197.34 368.00 192.02 C 373.32 192.01 378.65 191.99 383.98 191.98 C 383.99 186.65 384.00 181.32 384.01 176.00 Z" />
<path fill="#c0c0c0" opacity="1.00" d=" M 64.01 192.00 C 69.34 192.00 74.66 191.99 80.00 192.00 C 79.99 197.31 80.00 202.63 80.00 207.94 C 74.65 208.08 69.32 208.17 63.98 208.43 C 63.99 213.61 63.99 218.81 64.00 224.00 C 58.66 223.99 53.34 224.00 48.01 224.00 C 48.00 218.67 48.00 213.34 48.00 208.02 C 53.33 208.01 58.65 207.99 63.98 207.98 C 64.00 202.65 64.01 197.32 64.01 192.00 Z" />
<path fill="#c0c0c0" opacity="1.00" d=" M 96.00 192.00 C 101.33 192.00 106.66 191.99 112.00 192.00 C 112.00 197.33 112.00 202.66 112.00 208.00 C 106.66 207.99 101.33 208.01 96.00 208.00 C 96.00 202.67 96.00 197.33 96.00 192.00 Z" />
<path fill="#c0c0c0" opacity="1.00" d=" M 128.00 192.00 C 133.33 192.00 138.66 191.99 143.99 192.00 C 143.99 197.33 143.99 202.67 144.00 208.00 C 138.66 207.99 133.33 208.00 128.00 208.00 C 128.00 202.67 128.00 197.33 128.00 192.00 Z" />
<path fill="#c0c0c0" opacity="1.00" d=" M 160.00 192.00 C 165.33 192.00 170.66 191.99 176.00 192.00 C 175.99 197.33 176.00 202.67 176.00 208.00 C 170.66 207.99 165.33 208.00 160.00 208.00 C 160.00 202.67 159.99 197.33 160.00 192.00 Z" />
<path fill="#c0c0c0" opacity="1.00" d=" M 192.00 192.00 C 197.33 192.00 202.66 191.99 208.00 192.00 C 207.99 197.33 208.00 202.67 208.00 208.00 C 202.66 207.99 197.33 208.00 192.00 208.00 C 192.00 202.67 191.99 197.33 192.00 192.00 Z" />
<path fill="#c0c0c0" opacity="1.00" d=" M 224.00 192.00 C 229.33 192.00 234.66 191.99 240.00 192.00 C 239.99 197.33 240.00 202.67 240.00 208.00 C 234.66 207.99 229.33 208.00 224.00 208.00 C 224.00 202.67 223.99 197.33 224.00 192.00 Z" />
<path fill="#c0c0c0" opacity="1.00" d=" M 256.00 192.00 C 261.33 192.00 266.66 191.99 272.00 192.00 C 271.99 197.33 272.00 202.67 272.00 208.00 C 266.66 207.99 261.33 208.00 256.00 208.00 C 256.00 202.67 255.99 197.33 256.00 192.00 Z" />
<path fill="#c0c0c0" opacity="1.00" d=" M 288.00 192.00 C 293.33 192.00 298.66 191.99 304.00 192.00 C 303.98 197.33 304.00 202.67 304.00 208.00 C 298.66 207.99 293.33 208.00 288.00 208.00 C 288.00 202.67 287.99 197.33 288.00 192.00 Z" />
<path fill="#c0c0c0" opacity="1.00" d=" M 80.00 207.94 C 85.33 207.98 90.66 207.97 96.00 208.00 C 96.00 213.33 96.00 218.67 96.00 224.00 C 90.66 223.99 85.33 224.00 80.00 224.00 C 80.00 218.65 79.99 213.29 80.00 207.94 Z" />
<path fill="#c0c0c0" opacity="1.00" d=" M 112.00 208.00 C 117.33 208.00 122.66 207.99 128.00 208.00 C 128.00 213.33 128.00 218.67 128.00 224.00 C 122.66 223.99 117.33 224.00 112.00 224.00 C 112.00 218.67 112.00 213.32 112.00 208.00 Z" />
<path fill="#c0c0c0" opacity="1.00" d=" M 144.00 208.00 C 149.34 208.00 154.66 207.99 160.00 208.00 C 159.99 213.33 160.00 218.67 160.00 224.00 C 154.66 223.99 149.33 224.00 144.00 224.00 C 144.00 218.67 144.00 213.33 144.00 208.00 Z" />
<path fill="#c0c0c0" opacity="1.00" d=" M 176.00 208.00 C 181.33 208.00 186.66 207.99 192.00 208.00 C 191.99 213.33 192.00 218.67 192.00 224.00 C 186.66 223.99 181.33 224.00 176.00 224.00 C 176.00 218.67 175.99 213.33 176.00 208.00 Z" />
<path fill="#c0c0c0" opacity="1.00" d=" M 208.00 208.00 C 213.33 208.00 218.66 207.99 224.00 208.00 C 223.99 213.33 224.00 218.67 224.00 224.00 C 218.66 223.99 213.33 224.00 208.00 224.00 C 208.00 218.67 207.99 213.33 208.00 208.00 Z" />
<path fill="#c0c0c0" opacity="1.00" d=" M 240.00 208.00 C 245.33 208.00 250.66 207.99 256.00 208.00 C 255.99 213.33 256.00 218.67 256.00 224.00 C 250.66 223.99 245.33 224.00 240.00 224.00 C 240.00 218.67 239.99 213.33 240.00 208.00 Z" />
<path fill="#c0c0c0" opacity="1.00" d=" M 272.00 208.00 C 277.33 208.00 282.66 207.99 288.00 208.00 C 287.99 213.33 288.00 218.67 288.00 224.00 C 282.66 223.99 277.33 224.00 272.00 224.00 C 272.00 218.67 271.99 213.33 272.00 208.00 Z" />
<path fill="#c0c0c0" opacity="1.00" d=" M 304.00 208.00 C 309.34 208.00 314.66 207.99 320.01 208.00 C 319.99 213.32 319.98 218.65 319.98 223.98 C 314.65 223.99 309.32 223.99 304.00 224.01 C 303.99 218.67 303.99 213.33 304.00 208.00 Z" />
<path fill="#c0c0c0" opacity="1.00" d=" M 64.00 224.00 C 69.33 224.00 74.66 223.99 80.00 224.00 C 80.00 229.33 80.00 234.67 80.00 240.00 C 74.66 239.97 69.33 239.98 64.00 239.94 C 64.00 234.63 63.99 229.30 64.00 224.00 Z" />
<path fill="#c0c0c0" opacity="1.00" d=" M 96.00 224.00 C 101.33 224.00 106.66 223.99 112.00 224.00 C 112.00 229.32 112.00 234.67 112.00 240.00 C 106.66 239.99 101.33 240.00 96.00 240.00 C 96.00 234.67 96.00 229.32 96.00 224.00 Z" />
<path fill="#c0c0c0" opacity="1.00" d=" M 128.00 224.00 C 133.33 224.00 138.66 223.99 144.00 224.00 C 144.00 229.33 144.00 234.67 144.00 240.00 C 138.66 239.99 133.33 240.00 128.00 240.00 C 128.00 234.67 128.00 229.33 128.00 224.00 Z" />
<path fill="#c0c0c0" opacity="1.00" d=" M 160.00 224.00 C 165.33 224.00 170.66 223.99 176.00 224.00 C 175.99 229.33 176.00 234.67 176.00 240.00 C 170.66 239.99 165.33 240.00 160.00 240.00 C 160.00 234.67 159.99 229.33 160.00 224.00 Z" />
<path fill="#c0c0c0" opacity="1.00" d=" M 192.00 224.00 C 197.33 224.00 202.66 223.99 208.00 224.00 C 207.99 229.33 208.00 234.67 208.00 240.00 C 202.66 239.99 197.33 240.00 192.00 240.00 C 192.00 234.67 191.99 229.33 192.00 224.00 Z" />
<path fill="#c0c0c0" opacity="1.00" d=" M 224.00 224.00 C 229.33 224.00 234.66 223.99 240.00 224.00 C 239.99 229.33 240.00 234.67 240.00 240.00 C 234.66 239.99 229.33 240.00 224.00 240.00 C 224.00 234.67 223.99 229.33 224.00 224.00 Z" />
<path fill="#c0c0c0" opacity="1.00" d=" M 256.00 224.00 C 261.33 224.00 266.66 223.99 272.00 224.00 C 271.99 229.32 272.00 234.67 272.00 240.00 C 266.66 239.99 261.33 240.00 256.00 240.00 C 256.00 234.67 255.99 229.32 256.00 224.00 Z" />
<path fill="#c0c0c0" opacity="1.00" d=" M 288.00 224.00 C 293.33 224.00 298.65 223.99 304.00 224.01 C 304.02 229.34 304.03 234.66 304.08 240.00 C 298.71 239.99 293.36 240.00 288.00 240.00 C 288.00 234.67 287.99 229.32 288.00 224.00 Z" />
<path fill="#c0c0c0" opacity="1.00" d=" M 351.98 223.99 C 357.31 224.00 362.65 224.00 368.00 224.01 C 378.66 224.00 389.33 223.99 400.00 224.00 C 400.00 234.66 400.00 245.33 400.00 256.00 C 383.99 255.98 367.99 255.99 351.99 256.01 C 352.04 245.33 352.03 234.66 351.98 223.99 Z" />
<path fill="#c0c0c0" opacity="1.00" d=" M 47.98 240.43 C 53.32 240.17 58.66 240.08 64.00 239.94 C 63.99 245.28 64.00 250.65 64.00 256.00 C 58.66 255.99 53.33 256.00 48.00 256.00 C 47.99 250.81 47.99 245.61 47.98 240.43 Z" />
<path fill="#c0c0c0" opacity="1.00" d=" M 80.00 240.00 C 85.33 240.01 90.66 239.99 96.00 240.00 C 96.00 245.32 96.00 250.67 96.00 256.00 C 90.66 255.99 85.33 256.00 80.00 256.00 C 80.00 250.67 80.00 245.33 80.00 240.00 Z" />
<path fill="#c0c0c0" opacity="1.00" d=" M 112.00 240.00 C 117.33 240.00 122.66 239.99 128.00 240.00 C 128.00 245.32 128.00 250.67 128.00 256.00 C 122.66 255.99 117.33 256.00 112.00 256.00 C 112.00 250.67 112.00 245.32 112.00 240.00 Z" />
<path fill="#c0c0c0" opacity="1.00" d=" M 144.00 240.00 C 149.33 240.00 154.66 239.99 160.00 240.00 C 159.99 245.32 160.00 250.67 160.00 256.00 C 154.66 255.99 149.33 256.00 144.00 256.00 C 144.00 250.67 143.99 245.32 144.00 240.00 Z" />
<path fill="#c0c0c0" opacity="1.00" d=" M 176.00 240.00 C 181.33 240.00 186.66 239.99 192.00 240.00 C 191.99 245.32 192.00 250.67 192.00 256.00 C 186.66 255.99 181.33 256.00 176.00 256.00 C 176.00 250.67 175.99 245.32 176.00 240.00 Z" />
<path fill="#c0c0c0" opacity="1.00" d=" M 208.00 240.00 C 213.33 240.00 218.66 239.99 224.00 240.00 C 223.99 245.32 224.00 250.67 224.00 256.00 C 218.66 255.99 213.33 256.00 208.00 256.00 C 208.00 250.67 207.99 245.32 208.00 240.00 Z" />
<path fill="#c0c0c0" opacity="1.00" d=" M 240.00 240.00 C 245.33 240.00 250.66 239.99 256.00 240.00 C 255.99 245.32 256.00 250.67 256.00 256.00 C 250.66 255.99 245.33 256.00 240.00 256.00 C 240.00 250.67 239.99 245.32 240.00 240.00 Z" />
<path fill="#c0c0c0" opacity="1.00" d=" M 272.00 240.00 C 277.33 240.00 282.66 239.99 288.00 240.00 C 287.99 245.33 288.00 250.67 288.00 256.00 C 282.66 255.99 277.33 256.00 272.00 256.00 C 272.00 250.67 271.99 245.32 272.00 240.00 Z" />
<path fill="#c0c0c0" opacity="1.00" d=" M 304.08 240.00 C 309.38 240.00 314.68 239.99 319.99 240.00 C 319.98 245.32 319.98 250.64 319.99 255.96 C 314.65 255.99 309.32 256.01 303.99 256.04 C 304.00 261.36 304.01 266.68 304.02 272.00 C 298.67 271.99 293.34 272.00 288.01 272.00 C 287.99 266.66 288.00 261.34 288.00 256.00 C 293.19 256.01 298.36 256.00 303.56 256.02 C 303.85 250.69 303.92 245.33 304.08 240.00 Z" />
<path fill="#c0c0c0" opacity="1.00" d=" M 32.01 256.00 C 37.34 256.00 42.66 255.99 48.00 256.00 C 47.99 261.30 48.00 266.63 48.00 271.94 C 42.66 272.07 37.32 272.17 31.98 272.43 C 31.99 277.61 31.99 282.81 32.00 288.00 C 26.67 287.99 21.34 288.00 16.02 288.00 C 16.01 282.67 16.01 277.34 16.00 272.02 C 21.32 272.00 26.65 271.99 31.98 271.98 C 32.00 266.65 32.01 261.32 32.01 256.00 Z" />
<path fill="#c0c0c0" opacity="1.00" d=" M 64.00 256.00 C 69.33 256.00 74.66 255.99 80.00 256.00 C 80.00 261.32 80.00 266.67 80.00 272.00 C 74.66 271.99 69.33 272.01 64.00 272.00 C 64.00 266.67 64.00 261.33 64.00 256.00 Z" />
<path fill="#c0c0c0" opacity="1.00" d=" M 96.00 256.00 C 101.33 256.00 106.66 255.99 112.00 256.00 C 112.00 261.32 112.00 266.67 112.00 272.00 C 106.66 271.99 101.33 272.00 96.00 272.00 C 96.00 266.67 96.00 261.32 96.00 256.00 Z" />
<path fill="#c0c0c0" opacity="1.00" d=" M 128.00 256.00 C 133.33 256.00 138.66 255.99 144.00 256.00 C 143.99 261.32 144.00 266.67 144.00 272.00 C 138.66 271.99 133.33 272.00 128.00 272.00 C 128.00 266.67 128.00 261.32 128.00 256.00 Z" />
<path fill="#c0c0c0" opacity="1.00" d=" M 160.00 256.00 C 165.33 256.00 170.66 255.99 176.00 256.00 C 175.99 261.32 176.00 266.67 176.00 272.00 C 170.66 271.99 165.33 272.00 160.00 272.00 C 160.00 266.67 159.99 261.32 160.00 256.00 Z" />
<path fill="#c0c0c0" opacity="1.00" d=" M 192.00 256.00 C 197.33 256.00 202.66 255.99 208.00 256.00 C 207.99 261.32 208.00 266.67 208.00 272.00 C 202.66 271.99 197.33 272.00 192.00 272.00 C 192.00 266.67 191.99 261.32 192.00 256.00 Z" />
<path fill="#c0c0c0" opacity="1.00" d=" M 224.00 256.00 C 229.33 256.00 234.66 255.99 240.00 256.00 C 239.99 261.32 240.00 266.67 240.00 272.00 C 234.66 271.99 229.33 272.00 224.00 272.00 C 224.00 266.67 223.99 261.32 224.00 256.00 Z" />
<path fill="#c0c0c0" opacity="1.00" d=" M 256.00 256.00 C 261.33 256.00 266.66 255.99 272.00 256.00 C 271.99 261.32 272.00 266.67 272.00 272.00 C 266.66 271.99 261.33 272.00 256.00 272.00 C 256.00 266.67 255.99 261.32 256.00 256.00 Z" />
<path fill="#c0c0c0" opacity="1.00" d=" M 48.00 271.94 C 53.33 271.98 58.66 271.97 64.00 272.00 C 64.00 277.33 64.00 282.67 64.00 288.00 C 58.66 287.99 53.33 288.00 48.00 288.00 C 48.00 282.65 48.00 277.28 48.00 271.94 Z" />
<path fill="#c0c0c0" opacity="1.00" d=" M 80.00 272.00 C 85.33 272.00 90.66 271.99 96.00 272.00 C 96.00 277.32 96.00 282.67 96.00 288.00 C 90.66 287.99 85.33 288.00 80.00 288.00 C 80.00 282.67 80.00 277.32 80.00 272.00 Z" />
<path fill="#c0c0c0" opacity="1.00" d=" M 112.00 272.00 C 117.33 272.00 122.66 271.99 128.00 272.00 C 128.00 277.32 128.00 282.67 128.00 288.00 C 122.66 287.99 117.33 288.00 112.00 288.00 C 112.00 282.67 112.00 277.32 112.00 272.00 Z" />
<path fill="#c0c0c0" opacity="1.00" d=" M 144.00 272.00 C 149.33 272.00 154.66 271.99 160.00 272.00 C 159.99 277.32 160.00 282.67 160.00 288.00 C 154.66 287.99 149.33 288.00 144.00 288.00 C 144.00 282.67 143.99 277.32 144.00 272.00 Z" />
<path fill="#c0c0c0" opacity="1.00" d=" M 176.00 272.00 C 181.33 272.00 186.66 271.99 192.00 272.00 C 191.99 277.32 192.00 282.67 192.00 288.00 C 186.66 287.99 181.33 288.00 176.00 288.00 C 176.00 282.67 175.99 277.32 176.00 272.00 Z" />
<path fill="#c0c0c0" opacity="1.00" d=" M 208.00 272.00 C 213.33 272.00 218.66 271.99 224.00 272.00 C 223.99 277.32 224.00 282.67 224.00 288.00 C 218.66 287.99 213.33 288.00 208.00 288.00 C 208.00 282.67 207.99 277.32 208.00 272.00 Z" />
<path fill="#c0c0c0" opacity="1.00" d=" M 240.00 272.00 C 245.33 272.00 250.66 271.99 256.00 272.00 C 255.99 277.32 256.00 282.67 256.00 288.00 C 250.66 287.99 245.33 288.00 240.00 288.00 C 240.00 282.67 239.99 277.32 240.00 272.00 Z" />
<path fill="#c0c0c0" opacity="1.00" d=" M 272.00 272.00 C 277.34 272.00 282.66 271.99 288.01 272.00 C 287.99 277.32 287.98 282.65 287.98 287.98 C 282.65 287.98 277.32 287.99 272.00 288.01 C 272.00 282.67 271.99 277.32 272.00 272.00 Z" />
<path fill="#c0c0c0" opacity="1.00" d=" M 336.01 272.00 C 352.00 272.00 368.00 272.00 384.00 272.00 C 384.00 282.66 384.00 293.33 384.00 304.00 C 362.66 303.99 341.33 304.00 320.00 304.00 C 320.00 298.67 320.00 293.34 320.00 288.02 C 325.32 288.00 330.65 287.99 335.98 287.98 C 335.99 282.65 336.00 277.32 336.01 272.00 Z" />
<path fill="#c0c0c0" opacity="1.00" d=" M 32.00 288.00 C 37.33 288.00 42.66 287.99 48.00 288.00 C 48.00 293.32 48.00 298.67 48.00 304.00 C 42.67 304.00 37.33 303.99 32.00 304.00 C 32.00 298.67 32.00 293.32 32.00 288.00 Z" />
<path fill="#c0c0c0" opacity="1.00" d=" M 64.00 288.00 C 69.33 288.00 74.66 287.99 80.00 288.00 C 80.00 293.32 80.00 298.67 80.00 304.00 C 74.67 304.00 69.33 303.99 64.00 304.00 C 64.00 298.67 64.00 293.32 64.00 288.00 Z" />
<path fill="#c0c0c0" opacity="1.00" d=" M 96.00 288.00 C 101.33 288.00 106.66 287.99 112.00 288.00 C 112.00 293.32 112.00 298.67 112.00 304.00 C 106.67 304.00 101.33 303.99 96.00 304.00 C 96.00 298.67 96.00 293.32 96.00 288.00 Z" />
<path fill="#c0c0c0" opacity="1.00" d=" M 128.00 288.00 C 133.33 288.00 138.66 287.99 144.00 288.00 C 143.99 293.32 144.00 298.67 144.00 304.00 C 138.67 304.00 133.33 303.99 128.00 304.00 C 128.00 298.67 128.00 293.32 128.00 288.00 Z" />
<path fill="#c0c0c0" opacity="1.00" d=" M 160.00 288.00 C 165.33 288.00 170.66 287.99 176.00 288.00 C 175.99 293.32 176.00 298.67 176.00 304.00 C 170.67 304.00 165.33 303.99 160.00 304.00 C 160.00 298.67 159.99 293.32 160.00 288.00 Z" />
<path fill="#c0c0c0" opacity="1.00" d=" M 192.00 288.00 C 197.33 288.00 202.66 287.99 208.00 288.00 C 207.99 293.32 208.00 298.67 208.00 304.00 C 202.67 304.00 197.33 303.99 192.00 304.00 C 192.00 298.67 191.99 293.32 192.00 288.00 Z" />
<path fill="#c0c0c0" opacity="1.00" d=" M 224.00 288.00 C 229.33 288.00 234.66 287.99 240.00 288.00 C 239.99 293.32 240.00 298.67 240.00 304.00 C 234.67 303.99 229.33 303.99 224.00 304.00 C 224.00 298.67 223.99 293.32 224.00 288.00 Z" />
<path fill="#c0c0c0" opacity="1.00" d=" M 256.00 288.00 C 261.33 288.00 266.66 287.99 272.00 288.01 C 272.00 293.33 271.99 298.65 272.00 303.99 C 266.67 303.99 261.32 303.99 256.00 304.01 C 256.00 298.67 255.99 293.33 256.00 288.00 Z" />
<path fill="#c0c0c0" opacity="1.00" d=" M 304.02 320.00 C 309.34 320.00 314.67 320.00 320.00 320.00 C 336.00 319.99 352.00 319.99 368.00 320.00 C 368.00 330.67 368.00 341.33 368.00 352.00 C 293.33 352.00 218.67 352.00 144.00 352.00 C 144.00 346.66 144.00 341.32 144.00 335.99 C 197.33 336.02 250.65 335.98 303.98 336.01 C 303.99 330.67 304.00 325.33 304.02 320.00 Z" />
<path fill="#c0c0c0" opacity="1.00" d=" M 143.99 368.00 C 213.33 368.00 282.66 368.00 352.00 368.00 C 352.00 378.66 352.00 389.33 352.00 400.00 C 282.67 400.00 213.33 400.00 144.00 400.00 C 144.02 389.33 144.03 378.66 143.99 368.00 Z" />
<path fill="#c0c0c0" opacity="1.00" d=" M 144.00 416.00 C 202.67 416.00 261.34 416.00 320.01 416.00 C 319.99 421.33 319.98 426.67 319.98 432.01 C 261.32 431.98 202.66 432.01 144.00 432.00 C 144.00 426.65 144.00 421.33 144.00 416.00 Z" />
</g>
<g id="#008080ff">
<path fill="#008080" opacity="1.00" d=" M 416.01 48.00 C 421.33 48.00 426.67 48.00 432.00 48.00 C 432.01 51.81 432.02 59.42 432.03 63.23 C 426.67 63.69 421.32 64.01 415.99 64.57 C 415.99 74.82 415.99 85.07 416.02 95.32 C 410.68 95.66 405.34 95.95 400.01 96.21 C 400.01 106.54 400.02 116.87 400.01 127.20 C 394.66 127.68 389.32 128.01 383.99 128.57 C 383.99 138.82 383.99 149.07 384.02 159.32 C 378.68 159.66 373.34 159.95 368.01 160.21 C 368.01 170.54 368.02 180.87 368.01 191.20 C 362.66 191.68 357.32 192.01 351.99 192.57 C 351.99 202.82 351.99 213.07 352.02 223.32 C 346.68 223.66 341.34 223.95 336.01 224.21 C 336.01 234.54 336.02 244.87 336.01 255.20 C 330.66 255.68 325.32 256.01 319.99 256.57 C 319.99 266.82 319.99 277.07 320.02 287.32 C 314.68 287.66 309.34 287.95 304.00 288.21 C 304.02 298.60 304.05 308.98 304.00 319.38 C 295.34 319.77 286.67 319.99 278.00 320.04 C 190.90 319.98 103.80 319.97 16.70 320.04 C 16.40 314.68 16.13 309.34 15.90 303.99 C 21.27 303.98 26.63 304.00 32.00 304.00 C 37.33 303.99 42.67 304.00 48.00 304.00 C 53.33 303.99 58.67 304.00 64.00 304.00 C 69.33 303.99 74.67 304.00 80.00 304.00 C 85.33 303.99 90.67 304.00 96.00 304.00 C 101.33 303.99 106.67 304.00 112.00 304.00 C 117.33 303.99 122.67 304.00 128.00 304.00 C 133.33 303.99 138.67 304.00 144.00 304.00 C 149.33 303.99 154.67 304.00 160.00 304.00 C 165.33 303.99 170.67 304.00 176.00 304.00 C 181.33 303.99 186.67 304.00 192.00 304.00 C 197.33 303.99 202.67 304.00 208.00 304.00 C 213.33 303.99 218.67 304.00 224.00 304.00 C 229.33 303.99 234.67 303.99 240.00 304.00 C 245.32 303.99 250.67 304.02 256.00 304.01 C 261.32 303.99 266.67 303.99 272.00 303.99 C 277.28 303.98 282.57 303.99 287.85 304.00 C 288.02 298.82 288.19 293.65 288.38 288.49 C 293.58 288.15 298.80 287.91 304.00 287.47 C 303.99 282.30 304.01 277.16 304.02 272.00 C 304.01 266.68 304.00 261.36 303.99 256.04 C 309.32 256.01 314.65 255.99 319.99 255.96 C 319.98 250.64 319.98 245.32 319.99 240.00 C 319.98 234.93 320.01 229.87 319.98 224.81 C 325.31 224.34 330.67 223.96 336.01 223.42 C 335.99 218.27 336.01 213.14 336.02 208.00 C 336.01 202.68 336.00 197.36 335.99 192.04 C 341.32 192.01 346.65 191.99 351.99 191.96 C 351.98 186.64 351.98 181.32 351.99 176.00 C 351.98 170.93 352.01 165.87 351.98 160.81 C 357.31 160.34 362.67 159.96 368.01 159.42 C 367.99 154.27 368.01 149.14 368.02 144.00 C 368.01 138.68 368.00 133.36 367.99 128.04 C 373.32 128.02 378.65 127.99 383.99 127.96 C 383.98 122.64 383.98 117.32 383.99 112.00 C 383.98 106.93 384.01 101.87 383.98 96.81 C 389.30 96.35 394.66 95.96 399.99 95.42 C 399.97 90.27 399.98 85.14 400.01 80.00 C 400.05 74.79 400.18 69.58 400.30 64.37 C 405.52 64.19 410.73 64.02 415.96 63.85 C 415.97 58.57 415.99 53.29 416.01 48.00 Z" />
</g>
<g id="#808080ff">
<path fill="#808080" opacity="1.00" d=" M 448.00 63.92 C 453.33 64.05 458.70 64.12 464.04 64.44 C 463.95 197.39 464.01 330.34 464.01 463.29 C 458.75 463.65 453.48 463.94 448.23 464.24 C 447.95 469.49 447.65 474.76 447.32 480.02 C 367.21 480.02 287.11 479.92 207.00 480.07 C 196.74 479.87 186.33 480.88 176.18 479.02 C 175.97 474.00 175.92 469.01 175.91 463.99 C 261.26 464.01 346.61 463.99 431.96 464.00 C 431.98 458.68 432.01 453.35 432.04 448.04 C 437.35 448.01 442.68 447.99 448.01 447.98 C 447.99 319.96 448.01 191.94 448.00 63.92 Z" />
<path fill="#808080" opacity="1.00" d=" M 384.00 159.98 C 389.32 159.98 394.65 159.99 399.99 160.00 C 410.66 160.01 421.33 160.00 432.01 159.99 C 432.00 165.33 431.99 170.66 431.99 176.00 C 426.65 175.99 421.33 176.00 416.00 176.00 C 405.33 176.00 394.67 176.00 384.01 176.00 C 384.00 170.66 383.99 165.32 384.00 159.98 Z" />
<path fill="#808080" opacity="1.00" d=" M 368.00 208.00 C 384.00 208.00 400.00 208.00 416.00 208.00 C 421.34 208.00 426.65 207.99 432.00 208.00 C 432.01 213.33 431.99 218.66 432.00 224.00 C 421.33 224.00 410.66 224.01 400.00 224.00 C 389.33 223.99 378.66 224.00 368.00 224.01 C 367.99 218.66 368.01 213.34 368.00 208.00 Z" />
<path fill="#808080" opacity="1.00" d=" M 336.00 255.99 C 341.32 255.99 346.65 256.00 351.99 256.01 C 367.99 255.99 383.99 255.98 400.00 256.00 C 410.66 256.00 421.33 256.00 432.00 256.00 C 432.00 261.33 431.99 266.66 432.00 272.00 C 416.00 272.00 400.00 272.00 384.00 272.00 C 368.00 272.00 352.00 272.00 336.01 272.00 C 336.00 266.66 335.99 261.32 336.00 255.99 Z" />
<path fill="#808080" opacity="1.00" d=" M 320.00 304.00 C 341.33 304.00 362.66 303.99 384.00 304.00 C 400.00 304.00 416.00 303.99 432.00 304.00 C 432.00 309.34 431.99 314.66 432.00 320.00 C 410.67 319.99 389.33 320.00 368.00 320.00 C 352.00 319.99 336.00 319.99 320.00 320.00 C 319.99 314.66 320.01 309.33 320.00 304.00 Z" />
<path fill="#808080" opacity="1.00" d=" M 144.00 352.00 C 218.67 352.00 293.33 352.00 368.00 352.00 C 389.33 351.99 410.66 352.00 432.00 352.00 C 432.00 357.33 431.98 362.65 432.00 368.00 C 405.33 367.99 378.67 368.00 352.00 368.00 C 282.66 368.00 213.33 368.00 143.99 368.00 C 143.99 362.65 144.00 357.33 144.00 352.00 Z" />
<path fill="#808080" opacity="1.00" d=" M 144.00 400.00 C 213.33 400.00 282.67 400.00 352.00 400.00 C 378.67 399.99 405.34 400.00 432.01 400.00 C 432.00 405.33 431.97 410.65 431.98 416.00 C 394.66 415.99 357.33 416.00 320.01 416.00 C 261.34 416.00 202.67 416.00 144.00 416.00 C 143.99 410.65 144.00 405.33 144.00 400.00 Z" />
</g>
</svg>
