<?xml version="1.0" encoding="UTF-8" ?>
<!DOCTYPE svg PUBLIC "-//W3C//DTD SVG 1.1//EN" "http://www.w3.org/Graphics/SVG/1.1/DTD/svg11.dtd">
<svg width="512pt" height="512pt" viewBox="0 0 512 512" version="1.1" xmlns="http://www.w3.org/2000/svg">
<g id="#c0c0c0ff">
<path fill="#c0c0c0" opacity="1.00" d=" M 0.00 32.00 C 170.67 32.00 341.33 32.00 512.00 32.00 L 512.00 48.00 C 506.65 48.00 501.33 48.00 496.00 48.00 C 336.00 48.00 176.00 47.99 16.00 48.01 C 15.99 176.00 16.00 304.00 16.00 432.00 C 16.00 437.32 16.00 442.67 16.00 448.00 C 10.67 447.98 5.33 448.00 0.00 448.00 L 0.00 32.00 Z" />
<path fill="#c0c0c0" opacity="1.00" d=" M 32.00 64.00 C 37.34 64.00 42.69 64.00 48.03 64.00 C 48.00 69.31 47.97 74.63 47.94 79.94 C 42.63 79.97 37.31 80.00 32.00 80.03 C 32.00 74.68 32.00 69.34 32.00 64.00 Z" />
<path fill="#c0c0c0" opacity="1.00" d=" M 400.00 64.00 C 405.34 64.00 410.68 64.00 416.03 64.00 C 415.99 69.31 415.96 74.63 415.94 79.94 C 410.62 79.97 405.31 80.00 400.00 80.03 C 399.99 74.68 399.99 69.34 400.00 64.00 Z" />
<path fill="#c0c0c0" opacity="1.00" d=" M 448.00 64.00 C 453.34 64.00 458.68 64.00 464.03 64.00 C 463.99 69.31 463.96 74.63 463.94 79.94 C 458.62 79.97 453.31 80.00 448.00 80.03 C 447.99 74.68 447.99 69.34 448.00 64.00 Z" />
</g>
<g id="#000000ff">
<path fill="#000000" opacity="1.00" d=" M 16.00 48.01 C 176.00 47.99 336.00 48.00 496.00 48.00 C 495.99 176.00 496.01 304.00 495.99 432.00 C 335.99 432.01 176.00 432.00 16.00 432.00 C 16.00 304.00 15.99 176.00 16.00 48.01 M 32.00 64.00 C 32.00 69.34 32.00 74.68 32.00 80.03 C 32.00 85.35 32.00 90.68 32.00 96.01 C 42.67 95.97 53.34 95.98 64.01 96.02 C 63.97 85.35 63.97 74.67 64.02 64.00 C 58.69 64.00 53.36 64.00 48.03 64.00 C 42.69 64.00 37.34 64.00 32.00 64.00 M 79.99 64.00 C 80.03 74.67 80.02 85.33 79.98 96.00 C 181.32 96.00 282.67 96.00 384.01 96.00 C 383.97 85.33 383.97 74.66 384.02 64.00 C 357.35 64.00 330.69 63.99 304.03 64.00 C 298.67 64.01 293.31 64.00 287.97 64.00 C 282.66 63.99 277.33 63.99 272.02 64.00 C 266.67 64.00 261.31 64.00 255.97 64.00 C 250.66 64.00 245.33 64.00 240.02 64.00 C 234.67 64.00 229.31 64.00 223.97 64.00 C 218.66 63.99 213.33 64.00 208.02 64.00 C 202.67 64.00 197.32 64.00 191.97 64.00 C 154.64 63.99 117.32 63.99 79.99 64.00 M 400.00 64.00 C 399.99 69.34 399.99 74.68 400.00 80.03 C 399.99 85.35 399.99 90.68 400.00 96.01 C 410.67 95.97 421.34 95.98 432.01 96.02 C 431.96 85.35 431.97 74.67 432.02 64.00 C 426.69 64.00 421.35 64.00 416.03 64.00 C 410.68 64.00 405.34 64.00 400.00 64.00 M 448.00 64.00 C 447.99 69.34 447.99 74.68 448.00 80.03 C 447.99 85.35 447.99 90.68 448.00 96.01 C 458.67 95.97 469.34 95.98 480.01 96.02 C 479.96 85.35 479.97 74.67 480.02 64.00 C 474.69 64.00 469.35 64.00 464.03 64.00 C 458.68 64.00 453.34 64.00 448.00 64.00 M 96.00 160.01 C 96.00 165.33 96.00 170.66 95.99 175.99 C 112.00 176.01 128.00 176.02 144.00 175.99 C 144.00 170.66 144.00 165.33 144.00 160.00 C 128.00 159.99 112.00 159.98 96.00 160.01 M 223.99 160.00 C 224.03 170.67 224.02 181.33 223.98 192.00 C 229.31 191.99 234.65 191.99 240.00 192.00 C 239.98 181.33 239.99 170.67 240.01 160.00 C 234.66 160.00 229.32 160.00 223.99 160.00 M 80.01 176.00 C 79.98 197.33 79.98 218.67 80.01 240.00 C 85.34 240.00 90.67 240.00 95.99 240.00 C 96.02 218.67 96.02 197.33 95.99 175.99 C 90.66 175.99 85.33 176.00 80.01 176.00 M 144.00 175.99 C 144.00 181.33 144.00 186.66 144.00 192.00 C 149.33 192.00 154.66 192.00 160.00 192.00 C 160.00 186.66 160.00 181.33 160.00 176.00 C 154.66 176.00 149.33 175.99 144.00 175.99 M 192.00 192.00 C 192.00 197.33 192.00 202.66 192.00 208.00 C 197.33 208.00 202.66 208.00 208.00 208.00 C 208.00 202.66 208.00 197.33 208.00 192.00 C 202.66 192.00 197.33 192.00 192.00 192.00 M 240.00 192.00 C 240.02 202.67 240.01 213.33 239.98 224.00 C 245.32 223.99 250.66 223.99 256.00 224.00 C 255.97 213.33 255.98 202.66 256.02 192.00 C 250.68 192.00 245.34 192.00 240.00 192.00 M 144.00 224.00 C 144.00 229.33 144.00 234.67 144.00 240.01 C 149.33 240.00 154.66 240.00 160.00 240.00 C 160.00 234.66 160.00 229.33 160.00 224.00 C 154.66 224.00 149.33 224.00 144.00 224.00 M 256.00 224.00 C 256.01 234.66 256.01 245.33 255.99 256.00 C 261.33 256.00 266.67 256.00 272.01 256.00 C 271.96 245.33 271.97 234.66 272.02 224.00 C 266.68 224.00 261.34 224.00 256.00 224.00 M 95.99 240.00 C 96.00 245.33 96.00 250.66 96.00 256.00 C 112.00 256.01 128.00 256.01 144.00 255.99 C 144.00 250.66 143.99 245.33 144.00 240.01 C 128.00 239.98 112.00 239.98 95.99 240.00 M 192.00 240.00 C 192.00 245.33 192.00 250.66 192.00 256.00 C 197.33 256.00 202.66 256.00 208.00 256.00 C 208.00 250.66 208.00 245.33 208.00 240.00 C 202.66 240.00 197.33 240.00 192.00 240.00 M 288.00 240.01 C 288.00 245.33 288.00 250.66 288.00 255.99 C 325.33 256.01 362.67 256.01 400.00 255.99 C 399.99 250.66 399.99 245.33 400.00 240.01 C 362.66 239.99 325.33 239.99 288.00 240.01 Z" />
</g>
<g id="#808080ff">
<path fill="#808080" opacity="1.00" d=" M 496.00 48.00 C 501.33 48.00 506.65 48.00 512.00 48.00 L 512.00 448.00 C 346.67 448.00 181.33 448.00 16.00 448.00 C 16.00 442.67 16.00 437.32 16.00 432.00 C 176.00 432.00 335.99 432.01 495.99 432.00 C 496.01 304.00 495.99 176.00 496.00 48.00 Z" />
<path fill="#808080" opacity="1.00" d=" M 48.03 64.00 C 53.36 64.00 58.69 64.00 64.02 64.00 C 63.97 74.67 63.97 85.35 64.01 96.02 C 53.34 95.98 42.67 95.97 32.00 96.01 C 32.00 90.68 32.00 85.35 32.00 80.03 C 37.31 80.00 42.63 79.97 47.94 79.94 C 47.97 74.63 48.00 69.31 48.03 64.00 Z" />
<path fill="#808080" opacity="1.00" d=" M 416.03 64.00 C 421.35 64.00 426.69 64.00 432.02 64.00 C 431.97 74.67 431.96 85.35 432.01 96.02 C 421.34 95.98 410.67 95.97 400.00 96.01 C 399.99 90.68 399.99 85.35 400.00 80.03 C 405.31 80.00 410.62 79.97 415.94 79.94 C 415.96 74.63 415.99 69.31 416.03 64.00 Z" />
<path fill="#808080" opacity="1.00" d=" M 464.03 64.00 C 469.35 64.00 474.69 64.00 480.02 64.00 C 479.97 74.67 479.96 85.35 480.01 96.02 C 469.34 95.98 458.67 95.97 448.00 96.01 C 447.99 90.68 447.99 85.35 448.00 80.03 C 453.31 80.00 458.62 79.97 463.94 79.94 C 463.96 74.63 463.99 69.31 464.03 64.00 Z" />
</g>
<g id="#0000ffff">
<path fill="#0000ff" opacity="1.00" d=" M 79.99 64.00 C 117.32 63.99 154.64 63.99 191.97 64.00 C 192.00 69.33 192.03 74.67 192.06 80.00 C 197.35 79.99 202.65 79.99 207.96 80.00 C 207.98 74.66 208.00 69.33 208.02 64.00 C 213.33 64.00 218.66 63.99 223.97 64.00 C 224.00 69.33 224.03 74.66 224.06 80.00 C 229.35 79.99 234.65 79.99 239.96 80.00 C 239.98 74.66 240.00 69.33 240.02 64.00 C 245.33 64.00 250.66 64.00 255.97 64.00 C 256.00 69.33 256.03 74.66 256.06 80.00 C 261.35 79.99 266.65 79.99 271.96 80.00 C 271.98 74.66 272.00 69.33 272.02 64.00 C 277.33 63.99 282.66 63.99 287.97 64.00 C 288.00 69.33 288.03 74.66 288.06 80.00 C 293.35 79.99 298.65 79.99 303.96 80.00 C 303.98 74.66 304.00 69.33 304.03 64.00 C 330.69 63.99 357.35 64.00 384.02 64.00 C 383.97 74.66 383.97 85.33 384.01 96.00 C 282.67 96.00 181.32 96.00 79.98 96.00 C 80.02 85.33 80.03 74.67 79.99 64.00 Z" />
</g>
<g id="#ffffffff">
<path fill="#ffffff" opacity="1.00" d=" M 191.97 64.00 C 197.32 64.00 202.67 64.00 208.02 64.00 C 208.00 69.33 207.98 74.66 207.96 80.00 C 202.65 79.99 197.35 79.99 192.06 80.00 C 192.03 74.67 192.00 69.33 191.97 64.00 Z" />
<path fill="#ffffff" opacity="1.00" d=" M 223.97 64.00 C 229.31 64.00 234.67 64.00 240.02 64.00 C 240.00 69.33 239.98 74.66 239.96 80.00 C 234.65 79.99 229.35 79.99 224.06 80.00 C 224.03 74.66 224.00 69.33 223.97 64.00 Z" />
<path fill="#ffffff" opacity="1.00" d=" M 255.97 64.00 C 261.31 64.00 266.67 64.00 272.02 64.00 C 272.00 69.33 271.98 74.66 271.96 80.00 C 266.65 79.99 261.35 79.99 256.06 80.00 C 256.03 74.66 256.00 69.33 255.97 64.00 Z" />
<path fill="#ffffff" opacity="1.00" d=" M 287.97 64.00 C 293.31 64.00 298.67 64.01 304.03 64.00 C 304.00 69.33 303.98 74.66 303.96 80.00 C 298.65 79.99 293.35 79.99 288.06 80.00 C 288.03 74.66 288.00 69.33 287.97 64.00 Z" />
<path fill="#ffffff" opacity="1.00" d=" M 96.00 160.01 C 112.00 159.98 128.00 159.99 144.00 160.00 C 144.00 165.33 144.00 170.66 144.00 175.99 C 128.00 176.02 112.00 176.01 95.99 175.99 C 96.00 170.66 96.00 165.33 96.00 160.01 Z" />
<path fill="#ffffff" opacity="1.00" d=" M 223.99 160.00 C 229.32 160.00 234.66 160.00 240.01 160.00 C 239.99 170.67 239.98 181.33 240.00 192.00 C 234.65 191.99 229.31 191.99 223.98 192.00 C 224.02 181.33 224.03 170.67 223.99 160.00 Z" />
<path fill="#ffffff" opacity="1.00" d=" M 80.01 176.00 C 85.33 176.00 90.66 175.99 95.99 175.99 C 96.02 197.33 96.02 218.67 95.99 240.00 C 90.67 240.00 85.34 240.00 80.01 240.00 C 79.98 218.67 79.98 197.33 80.01 176.00 Z" />
<path fill="#ffffff" opacity="1.00" d=" M 144.00 175.99 C 149.33 175.99 154.66 176.00 160.00 176.00 C 160.00 181.33 160.00 186.66 160.00 192.00 C 154.66 192.00 149.33 192.00 144.00 192.00 C 144.00 186.66 144.00 181.33 144.00 175.99 Z" />
<path fill="#ffffff" opacity="1.00" d=" M 192.00 192.00 C 197.33 192.00 202.66 192.00 208.00 192.00 C 208.00 197.33 208.00 202.66 208.00 208.00 C 202.66 208.00 197.33 208.00 192.00 208.00 C 192.00 202.66 192.00 197.33 192.00 192.00 Z" />
<path fill="#ffffff" opacity="1.00" d=" M 240.00 192.00 C 245.34 192.00 250.68 192.00 256.02 192.00 C 255.98 202.66 255.97 213.33 256.00 224.00 C 250.66 223.99 245.32 223.99 239.98 224.00 C 240.01 213.33 240.02 202.67 240.00 192.00 Z" />
<path fill="#ffffff" opacity="1.00" d=" M 144.00 224.00 C 149.33 224.00 154.66 224.00 160.00 224.00 C 160.00 229.33 160.00 234.66 160.00 240.00 C 154.66 240.00 149.33 240.00 144.00 240.01 C 144.00 234.67 144.00 229.33 144.00 224.00 Z" />
<path fill="#ffffff" opacity="1.00" d=" M 256.00 224.00 C 261.34 224.00 266.68 224.00 272.02 224.00 C 271.97 234.66 271.96 245.33 272.01 256.00 C 266.67 256.00 261.33 256.00 255.99 256.00 C 256.01 245.33 256.01 234.66 256.00 224.00 Z" />
<path fill="#ffffff" opacity="1.00" d=" M 95.99 240.00 C 112.00 239.98 128.00 239.98 144.00 240.01 C 143.99 245.33 144.00 250.66 144.00 255.99 C 128.00 256.01 112.00 256.01 96.00 256.00 C 96.00 250.66 96.00 245.33 95.99 240.00 Z" />
<path fill="#ffffff" opacity="1.00" d=" M 192.00 240.00 C 197.33 240.00 202.66 240.00 208.00 240.00 C 208.00 245.33 208.00 250.66 208.00 256.00 C 202.66 256.00 197.33 256.00 192.00 256.00 C 192.00 250.66 192.00 245.33 192.00 240.00 Z" />
<path fill="#ffffff" opacity="1.00" d=" M 288.00 240.01 C 325.33 239.99 362.66 239.99 400.00 240.01 C 399.99 245.33 399.99 250.66 400.00 255.99 C 362.67 256.01 325.33 256.01 288.00 255.99 C 288.00 250.66 288.00 245.33 288.00 240.01 Z" />
</g>
</svg>
